<svg width="386" height="80" viewBox="0 0 386 80" fill="none" xmlns="http://www.w3.org/2000/svg">
<path d="M63.15 20.4285L74.15 19.1428L385.007 12.1428L376.436 69.2857L50.0071 60.7143L63.15 20.4285Z" fill="#297F66"/>
<path d="M0.292847 24.7143L46.0071 0L87.15 28.1429L53.4357 80L13.5786 69L0.292847 24.7143Z" fill="#43C5A3"/>
<path d="M118.397 46.9336C117.791 47.6598 116.934 48.2251 115.826 48.6294C114.718 49.0262 113.49 49.2246 112.142 49.2246C110.727 49.2246 109.484 48.9176 108.414 48.3037C107.35 47.6823 106.527 46.7839 105.943 45.6084C105.366 44.4329 105.071 43.0516 105.056 41.4644V40.3525C105.056 38.7204 105.329 37.3091 105.875 36.1187C106.43 34.9207 107.223 34.0073 108.256 33.3784C109.297 32.742 110.514 32.4238 111.906 32.4238C113.845 32.4238 115.361 32.888 116.455 33.8164C117.548 34.7373 118.195 36.0812 118.397 37.8481H115.118C114.968 36.9123 114.635 36.2272 114.119 35.793C113.61 35.3587 112.906 35.1416 112.007 35.1416C110.862 35.1416 109.99 35.5721 109.391 36.4331C108.792 37.2941 108.488 38.5744 108.481 40.2739V41.3184C108.481 43.0329 108.807 44.3281 109.458 45.2041C110.109 46.0801 111.064 46.5181 112.322 46.5181C113.587 46.5181 114.489 46.2485 115.028 45.7095V42.8906H111.962V40.4087H118.397V46.9336ZM130.369 45.6309H124.462L123.339 49H119.756L125.843 32.6484H128.965L135.086 49H131.503L130.369 45.6309ZM125.372 42.9019H129.459L127.404 36.7812L125.372 42.9019ZM147.574 35.3774H142.565V49H139.196V35.3774H134.255V32.6484H147.574V35.3774ZM162.814 49H159.445V41.9922H152.875V49H149.506V32.6484H152.875V39.2744H159.445V32.6484H162.814V49ZM175.605 41.9136H169.137V46.2935H176.729V49H165.768V32.6484H176.706V35.3774H169.137V39.2744H175.605V41.9136ZM184.758 43.0142H182.074V49H178.705V32.6484H184.781C186.712 32.6484 188.202 33.0789 189.25 33.9399C190.299 34.8009 190.823 36.0176 190.823 37.5898C190.823 38.7054 190.579 39.6375 190.093 40.3862C189.614 41.1274 188.884 41.7189 187.903 42.1606L191.44 48.8428V49H187.824L184.758 43.0142ZM182.074 40.2852H184.792C185.638 40.2852 186.293 40.0718 186.757 39.645C187.222 39.2108 187.454 38.6156 187.454 37.8594C187.454 37.0882 187.233 36.4818 186.791 36.04C186.357 35.5983 185.687 35.3774 184.781 35.3774H182.074V40.2852ZM196.977 49H193.608V32.6484H196.977V49ZM213.407 49H210.038L203.479 38.2412V49H200.11V32.6484H203.479L210.049 43.4297V32.6484H213.407V49ZM229.287 46.9336C228.681 47.6598 227.823 48.2251 226.715 48.6294C225.607 49.0262 224.379 49.2246 223.032 49.2246C221.617 49.2246 220.374 48.9176 219.303 48.3037C218.24 47.6823 217.417 46.7839 216.833 45.6084C216.256 44.4329 215.96 43.0516 215.945 41.4644V40.3525C215.945 38.7204 216.219 37.3091 216.765 36.1187C217.319 34.9207 218.113 34.0073 219.146 33.3784C220.187 32.742 221.403 32.4238 222.796 32.4238C224.735 32.4238 226.251 32.888 227.344 33.8164C228.437 34.7373 229.085 36.0812 229.287 37.8481H226.008C225.858 36.9123 225.525 36.2272 225.008 35.793C224.499 35.3587 223.795 35.1416 222.897 35.1416C221.751 35.1416 220.879 35.5721 220.28 36.4331C219.681 37.2941 219.378 38.5744 219.371 40.2739V41.3184C219.371 43.0329 219.696 44.3281 220.348 45.2041C220.999 46.0801 221.954 46.5181 223.211 46.5181C224.477 46.5181 225.379 46.2485 225.918 45.7095V42.8906H222.852V40.4087H229.287V46.9336ZM237.092 44.5977C237.092 43.8415 237.302 43.1414 237.721 42.4976C238.148 41.8537 238.927 41.1387 240.057 40.3525C239.57 39.7012 239.189 39.091 238.912 38.522C238.635 37.9455 238.496 37.3465 238.496 36.7251C238.496 35.4523 238.897 34.4191 239.698 33.6255C240.506 32.8244 241.592 32.4238 242.955 32.4238C244.175 32.4238 245.174 32.7869 245.953 33.5132C246.739 34.2394 247.132 35.1453 247.132 36.231C247.132 37.5337 246.473 38.6829 245.156 39.6787L243.898 40.5884L246.717 43.8677C247.159 42.9992 247.379 42.0409 247.379 40.9927H250.142C250.142 43.119 249.652 44.841 248.671 46.1587L251.119 49H247.436L246.593 48.0342C245.388 48.8278 244.003 49.2246 242.438 49.2246C240.821 49.2246 239.526 48.8016 238.552 47.9556C237.579 47.1021 237.092 45.9827 237.092 44.5977ZM242.595 46.6191C243.374 46.6191 244.111 46.402 244.808 45.9678L241.584 42.2393L241.349 42.4077C240.682 42.9767 240.349 43.6468 240.349 44.418C240.349 45.0693 240.555 45.6009 240.967 46.0127C241.386 46.417 241.929 46.6191 242.595 46.6191ZM241.405 36.6802C241.405 37.2417 241.734 37.9492 242.393 38.8027L243.258 38.23C243.7 37.9455 244.003 37.6685 244.167 37.3989C244.34 37.1294 244.426 36.8075 244.426 36.4331C244.426 36.0588 244.287 35.7331 244.01 35.4561C243.733 35.179 243.378 35.0405 242.943 35.0405C242.479 35.0405 242.105 35.1903 241.82 35.4897C241.543 35.7892 241.405 36.186 241.405 36.6802ZM267.055 44.71C267.055 44.0736 266.831 43.5869 266.381 43.25C265.932 42.9056 265.124 42.5462 263.956 42.1719C262.788 41.79 261.863 41.4157 261.182 41.0488C259.325 40.0456 258.396 38.6942 258.396 36.9946C258.396 36.1112 258.644 35.325 259.138 34.6362C259.639 33.9399 260.354 33.3971 261.283 33.0078C262.219 32.6185 263.267 32.4238 264.427 32.4238C265.595 32.4238 266.636 32.6372 267.549 33.064C268.463 33.4832 269.17 34.0785 269.672 34.8496C270.181 35.6208 270.436 36.4967 270.436 37.4775H267.066C267.066 36.7288 266.831 36.1486 266.359 35.7368C265.887 35.3175 265.225 35.1079 264.371 35.1079C263.548 35.1079 262.907 35.2839 262.451 35.6357C261.994 35.9801 261.766 36.4368 261.766 37.0059C261.766 37.5374 262.031 37.9829 262.563 38.3423C263.102 38.7017 263.892 39.0386 264.933 39.353C266.849 39.9295 268.246 40.6445 269.122 41.498C269.998 42.3516 270.436 43.4147 270.436 44.6875C270.436 46.1025 269.9 47.2144 268.83 48.0229C267.759 48.8241 266.318 49.2246 264.506 49.2246C263.248 49.2246 262.103 48.9963 261.069 48.5396C260.036 48.0754 259.246 47.4427 258.7 46.6416C258.161 45.8405 257.891 44.9121 257.891 43.8564H261.271C261.271 45.6608 262.35 46.563 264.506 46.563C265.307 46.563 265.932 46.402 266.381 46.0801C266.831 45.7507 267.055 45.2939 267.055 44.71ZM286.035 49H282.666V41.9922H276.096V49H272.727V32.6484H276.096V39.2744H282.666V32.6484H286.035V49ZM298.422 45.6309H292.515L291.392 49H287.809L293.896 32.6484H297.018L303.139 49H299.556L298.422 45.6309ZM293.424 42.9019H297.512L295.457 36.7812L293.424 42.9019ZM310.719 43.0142H308.035V49H304.666V32.6484H310.742C312.673 32.6484 314.163 33.0789 315.211 33.9399C316.26 34.8009 316.784 36.0176 316.784 37.5898C316.784 38.7054 316.54 39.6375 316.054 40.3862C315.575 41.1274 314.845 41.7189 313.864 42.1606L317.401 48.8428V49H313.785L310.719 43.0142ZM308.035 40.2852H310.753C311.599 40.2852 312.254 40.0718 312.718 39.645C313.182 39.2108 313.415 38.6156 313.415 37.8594C313.415 37.0882 313.194 36.4818 312.752 36.04C312.318 35.5983 311.648 35.3774 310.742 35.3774H308.035V40.2852ZM322.938 49H319.569V32.6484H322.938V49ZM339.368 49H335.999L329.44 38.2412V49H326.071V32.6484H329.44L336.01 43.4297V32.6484H339.368V49ZM355.248 46.9336C354.642 47.6598 353.784 48.2251 352.676 48.6294C351.568 49.0262 350.34 49.2246 348.993 49.2246C347.578 49.2246 346.335 48.9176 345.264 48.3037C344.201 47.6823 343.377 46.7839 342.793 45.6084C342.217 44.4329 341.921 43.0516 341.906 41.4644V40.3525C341.906 38.7204 342.18 37.3091 342.726 36.1187C343.28 34.9207 344.074 34.0073 345.107 33.3784C346.148 32.742 347.364 32.4238 348.757 32.4238C350.696 32.4238 352.212 32.888 353.305 33.8164C354.398 34.7373 355.046 36.0812 355.248 37.8481H351.969C351.819 36.9123 351.486 36.2272 350.969 35.793C350.46 35.3587 349.756 35.1416 348.858 35.1416C347.712 35.1416 346.84 35.5721 346.241 36.4331C345.642 37.2941 345.339 38.5744 345.332 40.2739V41.3184C345.332 43.0329 345.657 44.3281 346.309 45.2041C346.96 46.0801 347.915 46.5181 349.172 46.5181C350.438 46.5181 351.34 46.2485 351.879 45.7095V42.8906H348.813V40.4087H355.248V46.9336Z" fill="white"/>
</svg>
