<svg width="167" height="36" viewBox="0 0 167 36" fill="none" xmlns="http://www.w3.org/2000/svg">
<path d="M128.521 21.6938C129.107 17.1205 128.638 13.2508 132.743 10.9056C129.576 10.9056 128.521 9.4984 128.99 6.91859C129.342 4.92511 130.749 5.39416 132.039 5.2769C133.563 5.15964 134.15 5.86322 134.15 7.27038C134.15 11.2574 134.032 15.1271 134.15 19.114C134.15 20.9903 132.977 21.6938 131.687 21.1075C128.287 19.3486 124.065 23.5701 121.133 19.4658C121.016 19.3486 120.664 19.4658 120.313 19.4658C114.918 21.2248 114.918 21.2248 114.918 15.5961C114.918 13.8372 114.684 12.0782 115.036 10.3192C115.388 8.56029 113.394 5.2769 117.146 5.2769C120.664 5.2769 124.769 4.10426 126.528 8.79481C127.114 10.202 127.348 11.9609 126.41 13.0163C123.361 16.6515 126.762 18.2932 128.521 21.6938Z" fill="white"/>
<path d="M145.147 13.0944C145.147 10.1628 145.147 8.63839 145.147 6.99669C145.147 5.355 146.319 5.23773 147.492 5.23773C148.782 5.23773 149.954 5.23773 149.954 6.87943C149.954 11.1009 149.954 15.3224 149.954 19.5439C149.954 20.5993 149.368 21.1856 148.313 21.1856C146.788 21.1856 145.029 21.6547 144.208 19.6612C143.505 18.0195 142.567 16.4951 140.808 15.0879C140.808 16.4951 140.691 17.9022 140.808 19.1921C140.925 20.8338 139.987 21.1856 138.697 21.0684C137.407 20.9511 136 21.3029 136 19.1921C136 15.0879 136 10.9837 136 6.99669C136 6.05858 136.117 5.12047 137.29 5.12047C138.814 5.12047 140.573 4.41689 141.511 6.41037C142.45 8.40386 143.505 10.1628 145.147 13.0944Z" fill="white"/>
<path d="M97.7979 13.2509C97.7979 8.44304 101.081 5.04239 105.655 5.15965C110.111 5.15965 113.159 8.67756 113.159 13.6026C113.042 18.2932 109.993 21.4593 105.537 21.4593C100.964 21.4593 97.7979 18.1759 97.7979 13.2509ZM108 13.2509C107.765 11.7264 107.296 10.4365 105.42 10.4365C103.544 10.4365 102.958 11.7264 102.958 13.3681C102.958 15.1271 103.661 16.5342 105.655 16.5342C107.531 16.2997 107.883 14.7753 108 13.2509Z" fill="white"/>
<path d="M84.6645 6.80133C80.6776 11.6091 81.9675 16.0652 85.8372 20.2867C81.1466 21.5766 81.1466 21.5766 77.8632 17.2378C77.0424 17.5896 77.0424 18.2932 77.0424 18.9968C77.2769 21.342 75.7525 21.1075 74.228 21.2248C72.3518 21.342 72.1173 20.2867 72.2346 18.7622C72.3518 15.3616 72.2346 12.0782 72.2346 8.67755C72.2346 6.9186 71.8828 5.15964 74.6971 5.15964C77.6287 5.15964 76.9251 7.15312 76.9251 8.79482C76.9251 9.02934 77.0424 9.38114 77.0424 9.61566C77.0424 9.96745 77.1596 10.3192 77.1596 10.5538C77.2769 10.202 77.3942 9.96745 77.5114 9.61566C79.1531 7.03586 80.9121 4.57332 84.5473 6.33228C84.6645 6.44954 84.6645 6.80133 84.6645 6.80133Z" fill="white"/>
<path d="M159.244 12.899C157.485 14.658 157.603 16.7687 157.485 18.5277C157.134 21.5766 155.14 21.5766 153.147 21.2248C150.215 20.6384 152.326 18.645 152.56 17.5896C153.264 14.3062 154.436 11.1401 155.375 7.97395C155.961 5.86321 157.134 5.27689 159.127 5.27689C161.238 5.27689 162.293 6.09773 162.762 8.09122C163.7 11.6091 164.873 15.0098 165.928 18.5277C166.163 19.4658 167.453 20.9902 165.459 21.1075C164.052 21.2248 161.824 22.2801 161.12 19.7003C160.417 17.5896 159.831 15.3616 159.244 12.899Z" fill="white"/>
<path d="M52.417 12.1955C52.7688 10.5538 53.3551 8.91209 53.5896 7.2704C54.0587 4.69059 56.0522 5.04238 57.6939 5.27691C60.5082 5.74597 58.5147 7.50493 58.2802 8.5603C57.3421 11.961 56.0522 15.1271 54.9968 18.5277C54.5278 20.1694 53.9414 21.2248 51.8307 21.2248C49.6027 21.2248 49.2509 19.8176 48.6646 18.2932C47.4919 15.0098 46.3193 11.7264 45.3812 8.32577C45.1466 7.50492 43.505 5.86323 45.733 5.39418C47.2574 5.04238 49.3681 4.57333 50.0717 6.91861C50.658 8.67756 51.0098 10.5538 51.4789 12.3127C51.8307 12.3127 52.0652 12.3127 52.417 12.1955Z" fill="white"/>
<path d="M65.0813 15.4789C66.0194 17.1205 66.9575 16.7688 67.7784 16.7688C70.71 16.6515 70.1236 19.2313 69.5373 20.0521C67.8956 22.5147 65.0813 20.7557 62.8533 21.2248C61.4461 21.4593 60.1562 21.2248 60.2735 19.2313C60.2735 15.2443 60.2735 11.3746 60.2735 7.38765C60.2735 6.21501 60.508 5.2769 61.9152 5.2769C64.1432 5.2769 66.6057 4.57332 68.3647 5.39416C70.9445 6.68407 69.6546 8.91208 68.2474 10.671C68.1302 10.7883 68.1302 10.9056 68.1302 11.0228C71.9999 15.3616 67.4266 14.7753 65.0813 15.4789Z" fill="white"/>
<path d="M84.6644 6.80131V6.44952C87.7133 4.80783 90.8794 5.15962 94.1628 5.27688C96.7426 5.27688 98.5016 8.32574 96.7426 9.49838C93.1074 11.8437 94.6319 15.0098 94.3973 17.9414C94.2801 20.0521 94.1628 21.4593 91.3485 21.342C88.2996 21.342 88.8859 19.3485 89.0032 17.8241C89.7068 13.2508 87.9478 9.73291 84.6644 6.80131Z" fill="white"/>
<path d="M45.0294 30.6059C45.1467 29.316 45.2639 28.026 45.4985 26.7361C45.733 25.5635 47.2574 23.9218 47.4919 24.7427C48.7818 28.7296 53.8242 21.4593 54.0587 27.0879C54.176 28.3778 54.4105 29.6677 54.5278 30.9576C54.7623 33.0684 54.5278 34.1238 52.0652 32.3648C51.1271 31.6612 49.0164 32.4821 47.3747 32.5993C44.9121 32.9511 44.9121 32.9511 45.0294 30.6059Z" fill="white"/>
<path d="M159.713 28.6124C160.065 27.0879 158.541 24.2736 162.176 24.5081C164.287 24.6254 167.101 25.6808 166.046 27.2052C164.638 29.1987 168.391 32.5993 164.287 33.0684C161.238 33.4202 158.423 33.1857 159.713 28.6124Z" fill="white"/>
<path d="M80.4429 28.7296C80.7947 27.4397 79.7393 24.9772 81.2638 24.9772C83.0227 24.9772 84.7817 25.5635 86.5406 24.7426C86.6579 24.7426 87.2442 25.5635 87.2442 25.5635C84.4299 28.026 87.7133 30.7231 86.8924 33.3029C85.0162 32.5993 82.9055 33.1856 81.1465 32.8338C79.8566 32.5993 80.7947 30.1368 80.4429 28.7296Z" fill="white"/>
<path d="M104.13 31.1922C104.365 32.9511 102.958 33.6547 102.84 33.1856C101.433 29.9023 97.0945 36.1172 97.0945 31.5439C97.0945 29.1987 97.0945 24.7426 100.612 24.7426C104.013 24.8599 102.371 29.6677 104.13 31.1922Z" fill="white"/>
<path d="M150.567 31.6612C150.45 33.0684 149.16 33.6547 148.925 33.1857C147.753 29.6677 143.062 36.1173 143.297 31.4267C143.414 29.1987 143.179 24.5081 146.932 24.8599C150.332 25.0945 148.925 29.785 150.567 31.6612Z" fill="white"/>
<path d="M71.2964 31.6612C71.4137 33.0684 70.0065 33.6547 69.772 33.0684C68.4821 29.9023 63.7915 36.1173 64.0261 31.1922C64.1433 28.9642 63.9088 24.5081 67.544 24.7427C70.9446 24.9772 69.8893 29.5505 71.2964 31.6612Z" fill="white"/>
<path d="M133.329 26.8534C132.156 28.0261 133.564 28.3779 133.915 29.0815C134.502 30.4886 134.267 31.6613 133.095 32.5994C131.922 33.4202 130.632 33.6547 129.342 33.0684C127.7 32.2476 128.756 31.3095 129.108 30.2541C129.342 29.4332 128.521 28.3779 128.521 27.4398C128.521 25.4463 129.928 24.5082 131.687 24.6254C133.095 24.5082 134.384 24.9772 133.329 26.8534Z" fill="white"/>
<path d="M113.863 30.8404C114.684 29.6678 113.511 28.8469 113.511 27.9088C113.511 25.9153 114.567 24.5081 116.677 24.6254C118.671 24.6254 119.726 25.4463 118.085 27.557C117.85 27.9088 118.906 29.0814 119.14 30.0195C119.492 31.3095 118.906 32.2476 117.85 32.9511C116.795 33.6547 115.622 33.6547 114.567 33.3029C113.16 32.5994 113.394 31.6612 113.863 30.8404Z" fill="white"/>
<path d="M77.6287 9.85014C77.5115 10.2019 77.3942 10.4365 77.2769 10.7883C77.2769 10.4365 77.1597 10.0847 77.1597 9.85014L77.3942 9.73288L77.6287 9.85014Z" fill="white"/>
<path d="M31.1922 0H4.92508C2.22801 0 0 2.22801 0 4.92508V29.316L5.27687 24.0391L11.3746 30.1368L5.5114 36H31.1922C33.8893 36 36.1173 33.772 36.1173 31.0749V4.92508C36.1173 2.22801 33.8893 0 31.1922 0ZM15.4788 29.785C14.658 30.6059 13.3681 30.4886 12.5472 29.6678L5.62866 22.1629C4.80782 21.342 4.92508 20.0521 5.74593 19.2313C6.56678 18.4104 7.85668 18.5277 8.67752 19.3485L15.5961 26.8534C16.4169 27.6743 16.4169 28.9642 15.4788 29.785ZM28.1433 22.8664C27.7915 24.3909 26.3844 25.5635 24.7427 25.5635H18.0586L15.8306 23.4528L14.3062 21.9283L12.7818 20.4039L10.671 18.1759V11.3746C10.671 9.7329 11.7264 8.32573 13.3681 7.97394L29.0814 4.2215C29.316 4.10423 29.5505 4.45603 29.316 4.69055L22.0456 11.9609C21.2248 11.7264 20.2866 11.7264 19.114 12.899C18.5277 13.4853 18.1759 14.1889 18.1759 15.0098C18.1759 15.127 18.1759 15.2443 18.1759 15.3616C18.1759 15.4788 18.1759 15.5961 18.1759 15.5961C18.1759 15.7134 18.2932 15.8306 18.2932 15.9479C18.2932 16.0651 18.2932 16.1824 18.4104 16.1824C18.4104 16.2997 18.5277 16.4169 18.5277 16.4169C18.5277 16.5342 18.645 16.5342 18.645 16.6515C18.645 16.7687 18.7622 16.7687 18.8795 16.886C18.9967 17.0033 18.9967 17.0033 19.114 17.1205C19.2313 17.2378 19.2313 17.2378 19.3485 17.355C19.4658 17.4723 19.4658 17.4723 19.5831 17.5896C19.7003 17.5896 19.7003 17.7068 19.8176 17.7068C19.9349 17.7068 20.0521 17.8241 20.0521 17.8241C20.1694 17.8241 20.1694 17.8241 20.2866 17.9414C20.4039 17.9414 20.5212 18.0586 20.6384 18.0586C20.7557 18.0586 20.873 18.0586 20.873 18.0586C20.9902 18.0586 21.1075 18.0586 21.2248 18.0586C22.0456 18.0586 22.7492 17.7068 23.3355 17.1205C24.5081 15.9479 24.5081 15.0098 24.2736 14.1889L31.544 6.91857C31.7785 6.68404 32.1303 6.91857 32.013 7.15309L28.1433 22.8664Z" fill="white"/>
</svg>
