<svg width="279" height="294" viewBox="0 0 279 294" fill="none" xmlns="http://www.w3.org/2000/svg">
<path d="M86.6456 145.061C85.343 142.756 86.7458 140.552 87.0464 138.247C87.4472 133.638 88.349 129.129 89.0504 124.52C89.351 122.716 89.0504 121.915 86.846 121.915C78.329 121.714 78.4292 121.614 76.9262 129.83C74.7217 141.855 72.4171 153.879 70.2127 166.003C69.9121 167.907 69.3109 168.508 67.3069 168.007C57.0864 165.602 46.8659 163.297 36.5453 161.193C34.0403 160.692 33.8399 158.889 33.3388 157.185C26.8258 136.444 20.3128 115.702 13.7997 94.9606C10.1925 83.6379 6.58526 72.3152 3.07824 60.9926C2.67743 59.6899 1.87583 58.4875 2.47703 56.9845C19.912 56.9845 37.4471 56.9845 54.882 57.0847C54.7818 69.1088 54.5814 81.1329 54.4812 93.157C54.4812 94.7602 53.88 95.161 52.2768 95.3614C40.7537 96.0628 40.6535 96.163 40.8539 84.7401C40.8539 81.0327 40.9541 77.2251 41.1545 73.5176C41.2547 71.5136 40.6535 70.9124 38.6495 71.0126C33.7397 71.1128 28.8298 71.213 24.0202 71.0126C21.1144 70.9124 20.7136 71.6138 21.5152 74.4194C28.6294 96.664 35.8439 118.909 42.4571 141.354C44.1605 147.265 46.8659 150.271 52.9782 151.173C58.7898 151.975 58.6896 152.476 59.7918 146.664C66.7057 110.091 73.6195 73.4174 80.5334 36.8442C80.9342 34.6398 81.7358 34.0386 83.9402 34.0386C93.9603 34.1388 103.98 34.1388 114 34.0386C116.004 34.0386 116.906 34.3392 116.906 36.6438C116.706 42.756 116.806 48.8683 116.906 55.0807C116.906 57.1849 116.305 58.0867 114.201 57.7861C113.499 57.6859 112.698 57.7861 111.996 57.7861C109.291 57.6859 105.884 58.5877 103.98 57.2851C101.976 55.9825 103.58 52.3753 103.279 49.8703C103.179 49.3693 103.379 48.5677 103.079 48.4675C100.273 47.0647 97.2669 48.0667 94.3611 47.7661C92.5575 47.5657 92.4573 48.9685 92.2569 50.1709C88.6496 68.6078 85.1426 87.0447 81.5354 105.381C81.0344 107.786 81.7358 108.287 84.1406 108.287C91.6557 108.287 91.6557 108.387 92.7579 101.073C94.1607 91.9546 95.5635 82.7361 96.7659 73.6178C97.0665 71.0126 97.9683 70.1108 100.774 70.211C108.69 70.4114 116.505 70.4114 124.421 70.211C126.826 70.211 127.828 70.712 128.329 73.3172C131.235 88.5477 134.341 103.778 137.548 118.909C138.049 121.414 137.748 122.215 135.043 122.115C125.824 121.915 116.505 122.215 107.287 121.915C104.281 121.814 102.978 122.816 102.878 125.722C102.878 126.824 102.678 127.927 102.377 129.029C101.976 130.732 102.578 131.233 104.281 131.233C118.81 131.233 133.339 131.233 147.868 131.233C149.672 131.233 149.872 131.033 149.471 128.929C148.97 126.424 148.77 123.718 148.169 121.213C147.668 119.109 148.269 118.608 150.173 118.307C152.778 117.907 155.383 117.506 157.888 116.704C160.494 115.802 161.395 116.804 161.896 119.209C163.6 127.626 165.403 136.043 167.207 144.56C159.091 145.362 150.974 144.76 142.858 144.861C123.92 145.061 105.283 145.061 86.6456 145.061ZM113.099 108.187C114.602 108.187 116.105 108.087 117.608 108.187C120.513 108.588 121.315 107.686 120.513 104.68C119.01 98.5678 117.808 92.4556 116.806 86.3433C116.205 82.5357 113.499 84.3393 111.596 83.9385C109.491 83.5377 108.79 84.6399 108.59 86.6439C108.089 91.2532 107.387 95.8624 106.586 100.371C105.183 108.187 105.083 108.187 113.099 108.187Z" fill="#F5F8F8"/>
<path d="M153.279 246.164C151.776 246.865 150.574 245.863 149.371 245.362C131.435 238.348 113.499 231.334 95.5635 224.32C93.359 223.518 92.4572 222.616 92.858 220.011C94.2609 211.995 95.4633 203.979 96.5655 195.863C96.8661 193.658 97.7679 192.957 99.9723 193.057C103.079 193.258 106.185 193.157 109.391 193.358C111.195 193.458 111.896 193.057 111.395 191.053C109.792 185.442 108.289 179.731 106.886 174.019C106.385 172.216 105.483 171.715 103.68 171.815C100.974 171.915 98.1687 172.015 95.4633 171.815C92.858 171.614 92.0564 172.616 91.6556 175.021C87.6476 197.065 83.4392 219.009 79.331 241.053C77.5273 250.873 77.6275 250.873 67.9081 249.47C63.5994 248.869 59.2908 248.168 54.882 247.767C52.2768 247.566 51.7758 246.364 52.2768 244.059C52.878 240.853 52.2768 236.745 54.0804 234.641C56.0844 232.336 60.1926 234.44 63.1986 235.041C66.2047 235.643 66.8059 234.14 67.2067 231.835C70.7137 212.697 74.3209 193.458 77.8279 174.32C78.6295 169.911 79.5314 165.502 80.2328 161.093C80.5334 158.989 81.2348 158.087 83.5394 158.187C93.6597 158.288 103.78 158.288 114 158.187C116.205 158.187 117.006 158.989 117.507 160.993C121.315 175.522 125.123 190.051 129.131 204.48C129.932 207.386 128.93 207.586 126.626 207.486C121.716 207.286 116.906 207.286 111.996 207.186C110.594 207.186 108.69 206.484 108.69 208.989C108.69 211.194 106.686 213.799 110.393 215.302C118.109 218.308 125.624 221.514 133.339 224.721C135.143 225.522 137.047 226.224 139.451 227.226C139.451 225.422 139.451 224.019 139.451 222.616C139.451 212.697 139.552 202.877 139.351 192.957C139.351 190.452 140.053 189.55 142.457 189.951C146.065 190.552 149.872 188.749 153.379 190.953C153.079 192.155 153.079 193.458 153.379 194.66C153.379 195.161 153.379 195.562 153.379 196.063C152.878 212.596 152.878 229.33 153.279 246.164Z" fill="#F5F8F8"/>
<path d="M149.371 63.5978C151.375 72.5157 153.279 81.3334 155.283 90.2512C156.185 94.3595 157.087 98.5679 158.089 102.676C158.59 104.58 158.189 105.382 156.185 105.782C153.48 106.283 150.774 106.784 148.169 107.586C145.864 108.287 145.163 107.486 144.662 105.281C140.654 86.9446 136.546 68.6079 132.538 50.3713C130.834 42.5557 128.93 34.74 127.427 26.9244C126.926 24.6198 125.924 24.219 123.82 24.3192C118.81 24.4194 113.8 24.3192 108.79 24.4194C106.686 24.5196 105.784 23.9184 105.985 21.7139C106.185 18.2069 104.983 13.7981 106.686 11.4935C108.289 9.28905 112.999 10.8923 116.305 10.7921C122.518 10.6919 128.83 10.8923 135.043 10.6919C137.448 10.5917 138.249 11.4935 138.65 13.6979C140.554 23.1167 142.658 32.5356 144.662 41.8543C146.265 42.0547 146.265 40.7521 146.666 39.9505C150.874 31.734 154.983 23.4173 158.991 15.1007C160.093 12.7961 160.995 11.6939 163.6 13.4975C166.305 15.5015 170.915 16.6037 171.616 19.0085C172.317 21.4133 169.311 24.9204 167.808 27.9264C164.402 34.74 161.095 41.6539 157.488 48.3673C156.586 50.1709 156.586 51.0727 158.59 52.0748C164.702 55.181 170.714 58.4876 176.726 61.8944C178.63 62.9966 179.131 62.3954 179.933 60.5918C182.538 54.4796 182.638 54.5798 176.726 51.6739C169.011 47.8663 169.011 47.8663 172.518 39.8503C174.522 35.241 174.522 35.241 178.931 37.1448C184.241 39.4495 189.452 41.8543 194.762 43.9585C197.468 45.0607 198.269 46.0627 197.267 49.1689C193.76 59.8904 190.454 70.6119 187.348 81.4336C186.546 84.139 185.945 84.8404 183.239 83.137C173.319 76.9245 163.199 70.9125 153.079 64.8002C151.977 64.3994 151.175 63.2972 149.371 63.5978Z" fill="#F5F8F8"/>
<path d="M164.903 211.795C164.903 205.282 165.003 198.768 164.903 192.255C164.903 190.051 165.504 189.249 167.909 189.249C176.827 189.35 185.644 189.35 194.562 189.249C196.666 189.249 197.668 189.65 197.869 192.055C198.169 196.664 198.771 201.274 199.472 205.883C199.672 207.686 199.171 208.488 197.368 208.488C195.765 208.588 194.161 208.789 192.558 208.989C187.348 209.69 187.348 209.59 185.945 204.781C184.943 201.374 182.137 203.678 180.233 203.177C178.43 202.777 177.829 203.779 177.929 205.482C178.029 209.39 178.129 213.197 178.029 217.105C178.029 219.009 178.831 219.41 180.534 219.31C188.951 218.809 197.268 218.308 205.684 217.907C207.488 217.807 208.089 217.306 207.789 215.402C205.885 204.68 203.981 193.959 202.278 183.237C201.877 181.033 200.875 180.532 198.771 180.532C190.354 180.632 182.037 180.432 173.62 180.632C170.915 180.732 169.512 179.931 168.911 177.225C167.909 172.917 166.706 168.708 165.404 164.6C164.602 162.295 164.803 161.093 167.708 161.293C169.312 161.394 171.015 161.293 172.618 161.093C176.225 160.692 179.732 160.291 180.133 165.502C180.334 167.406 182.037 166.704 183.139 166.704C192.157 166.804 201.175 166.804 210.193 166.704C212.699 166.704 213.6 167.506 214.001 169.911C217.107 188.949 220.414 207.887 223.821 226.925C224.322 229.53 224.121 230.532 221.015 230.733C203.38 231.735 185.745 232.837 168.209 234.139C165.203 234.34 164.402 233.638 164.502 230.632C164.803 224.42 164.602 218.107 164.602 211.895C164.302 211.795 164.602 211.795 164.903 211.795Z" fill="#F5F8F8"/>
<path d="M206.085 131.233C204.482 129.229 204.983 126.724 204.782 124.419C203.279 105.381 201.977 86.243 200.574 67.2049C200.374 64.5997 200.774 63.7981 203.58 63.7981C221.716 63.8983 239.853 63.8983 257.989 63.7981C260.694 63.7981 261.496 64.1989 261.095 67.3051C258.189 87.746 255.484 108.187 252.678 128.628C252.478 129.73 252.578 130.933 251.175 131.333C244.863 131.333 238.65 131.333 232.338 131.333C228.33 131.033 224.322 131.033 220.314 131.333C215.604 131.233 210.895 131.233 206.085 131.233ZM230.434 77.726C226.426 77.726 222.418 77.9264 218.41 77.6258C215.604 77.4254 214.803 78.1268 215.003 81.1328C216.105 92.3553 217.007 103.578 217.809 114.8C217.909 116.504 218.51 117.205 220.213 117.105C226.225 117.005 232.237 117.005 238.25 117.105C239.652 117.105 240.454 116.904 240.654 115.201C242.157 103.377 243.761 91.6539 245.364 79.9304C245.564 78.227 245.063 77.726 243.46 77.8262C239.252 77.8262 234.843 77.726 230.434 77.726Z" fill="#F5F8F8"/>
<path d="M257.287 251.474C255.884 264.701 254.381 277.827 252.979 291.053C252.778 293.458 252.177 294.16 249.472 293.859C229.131 291.354 208.69 289.049 188.349 286.745C186.245 286.544 185.544 285.743 185.343 283.739C184.542 274.52 183.64 265.302 182.638 256.083C182.337 253.678 183.339 253.077 185.544 252.977C208.59 251.374 231.736 249.871 254.782 248.067C258.389 247.867 257.488 249.67 257.287 251.474ZM226.325 270.813C226.325 271.715 226.225 272.516 226.325 273.418C226.726 278.528 229.431 281.835 233.74 282.336C238.65 282.937 242.257 280.532 243.86 275.522C245.063 271.715 245.063 267.907 244.061 264.099C243.059 260.292 240.454 258.087 236.546 257.787C232.838 257.486 230.033 258.989 228.129 262.196C226.626 264.801 226.125 267.707 226.325 270.813ZM202.678 282.436C203.98 282.536 205.684 282.336 207.387 281.735C212.798 279.831 214.401 275.121 210.694 270.713C209.291 269.109 210.694 268.608 211.195 267.606C213.299 263.999 211.896 259.791 208.089 258.288C204.682 256.885 199.872 257.787 197.267 260.492C196.465 261.294 194.962 262.196 195.764 263.598C196.365 264.5 197.668 265.101 198.87 265.602C200.473 266.204 200.674 264.2 201.876 263.799C203.079 263.398 204.481 262.997 205.183 264.4C205.984 265.903 205.083 267.005 203.68 267.105C201.776 267.306 200.774 267.807 200.774 270.011C200.774 272.516 202.177 272.416 203.88 272.616C204.982 272.717 206.185 273.318 206.085 274.721C205.984 276.123 204.782 276.324 203.68 276.624C202.177 277.025 200.674 276.624 199.271 276.123C197.568 275.522 197.067 276.123 196.666 277.526C195.564 281.133 196.866 282.236 202.678 282.436ZM215.804 278.027C215.904 280.733 217.007 282.236 219.612 282.336C222.217 282.436 224.021 281.334 224.021 278.528C224.121 275.823 222.417 274.32 219.812 274.32C217.407 274.22 216.105 275.823 215.804 278.027Z" fill="#40BB9C"/>
<path d="M50.1727 226.825C38.4492 225.121 26.6255 223.518 14.902 221.815C10.7938 221.214 6.78576 220.512 2.67753 220.111C0.172514 219.911 -0.128088 218.709 0.372916 216.604C3.37894 203.879 6.38496 191.053 9.39098 178.227C9.89198 176.123 10.5934 175.322 12.9982 175.722C21.7157 177.326 30.5333 178.728 39.2508 180.131C41.4552 180.432 41.9562 181.434 41.5554 183.438C41.4552 183.638 41.4552 183.939 41.4552 184.139C40.0524 193.658 40.0524 193.558 30.5333 192.155C27.1265 191.654 22.9181 189.25 20.5133 191.254C18.409 193.057 18.6094 197.466 17.8078 200.672C15.904 208.388 15.904 208.388 23.8199 209.59C29.1305 210.392 34.4412 210.993 39.7518 211.995C42.2568 212.496 43.0584 211.694 43.6596 209.39C45.6636 200.873 47.9683 192.456 49.6717 183.839C50.4733 179.931 52.2769 177.827 55.7839 176.223C61.8961 173.518 61.7959 173.318 64.802 179.33C65.2028 180.231 65.6036 181.133 66.2048 182.035C67.7078 184.139 67.5074 185.542 64.9022 186.444C62.798 187.145 61.9963 188.749 61.4953 190.953C58.9903 201.875 56.1847 212.797 53.5795 223.719C53.1787 225.723 52.6777 227.326 50.1727 226.825Z" fill="#40BB9C"/>
<path d="M182.839 114.6C184.542 122.015 186.346 129.029 187.849 136.043C188.35 138.147 189.552 138.047 191.055 138.047C203.781 137.947 216.606 138.047 229.332 137.846C232.137 137.846 233.34 138.448 233.44 141.454C233.64 145.362 234.141 149.169 234.743 152.977C235.244 155.682 234.242 156.584 231.636 156.584C229.733 156.584 227.829 156.784 226.025 157.185C222.919 157.887 220.314 158.287 220.614 153.578C220.714 151.374 218.51 151.975 217.107 151.975C205.083 151.975 193.059 151.875 181.035 151.975C178.229 151.975 176.927 151.374 176.225 148.368C171.816 129.129 167.408 109.89 162.698 90.7522C161.997 88.0467 162.899 87.5457 165.103 87.1449C167.508 86.6439 170.113 86.3433 172.418 85.4415C175.223 84.3393 175.825 85.6419 176.326 87.9465C177.027 91.3534 178.129 94.7602 178.63 98.167C179.031 100.472 180.133 100.973 182.137 100.872C185.344 100.772 188.65 100.872 191.857 100.772C193.46 100.772 194.061 101.273 194.061 102.977C193.961 106.183 193.961 109.49 194.061 112.696C194.061 114.4 193.36 114.8 191.756 114.8C189.151 114.5 186.145 114.6 182.839 114.6Z" fill="#F5F8F8"/>
<path d="M253.28 229.43C247.267 229.029 241.255 228.428 235.344 228.228C232.839 228.127 232.137 227.125 231.937 225.021C229.632 208.588 227.328 192.055 225.023 175.622C224.722 173.518 224.722 171.314 224.021 169.31C222.718 165.702 224.522 165.001 227.528 165.001C230.734 165.001 234.742 162.696 236.847 164.801C238.65 166.504 238.149 170.712 238.55 173.718C240.454 186.544 242.458 199.47 244.261 212.296C244.562 214.5 245.263 215.302 247.468 215.402C250.173 215.402 252.979 215.602 255.684 216.003C258.39 216.404 258.791 215.402 258.39 212.897C257.087 205.081 256.085 197.266 254.883 189.55C254.582 187.346 255.083 186.745 257.288 186.644C262.698 186.544 268.009 186.243 273.42 185.843C275.624 185.642 276.225 186.344 276.225 188.448C276.225 191.153 276.326 193.959 276.726 196.664C277.027 199.169 276.025 199.871 273.821 199.57C270.213 199.069 269.412 200.572 270.013 203.979C271.416 211.895 272.318 219.811 273.62 227.727C274.121 230.532 273.32 231.133 270.614 230.833C264.803 230.131 258.991 229.831 253.28 229.43Z" fill="#F5F8F8"/>
<path d="M44.4611 32.1348C39.3508 27.6257 34.3408 23.0165 29.2306 18.5075C23.8197 13.798 23.8197 13.798 28.7296 8.48739C32.8378 4.07856 32.8378 3.97836 37.447 8.08659C46.6655 16.2028 55.7838 24.4193 65.1024 32.4354C67.2066 34.239 67.407 35.8422 66.8058 38.247C64.7016 46.2631 64.8018 46.2631 56.385 46.2631C44.3609 46.2631 32.3368 46.1629 20.3127 46.2631C17.5071 46.2631 16.7055 45.5617 16.7055 42.756C16.7055 32.9364 16.6053 32.9364 26.425 32.9364C32.3368 32.9364 38.2486 32.9364 44.2607 32.9364C44.2607 32.736 44.3609 32.4354 44.4611 32.1348Z" fill="#40BB9C"/>
<path d="M278.731 128.929C278.731 135.542 278.631 142.155 278.731 148.869C278.731 151.273 277.929 152.275 275.524 152.175C272.819 152.075 270.013 152.376 267.308 152.075C264.302 151.875 263.6 153.077 263.901 155.782C264.502 160.592 264.703 165.502 265.304 170.312C265.604 172.817 265.003 174.019 262.198 174.019C259.793 174.019 257.488 174.32 255.083 174.52C253.18 174.72 252.077 174.42 251.877 172.115C251.176 162.095 250.374 152.175 249.572 142.155C249.372 139.65 250.073 138.448 252.779 138.648C255.885 138.849 259.091 138.548 262.198 138.748C264.602 138.849 265.504 138.047 265.504 135.542C265.404 126.925 265.604 118.307 265.404 109.59C265.304 106.183 266.406 105.382 269.713 105.482C278.831 105.682 278.831 105.582 278.831 114.901C278.831 117.305 278.831 119.61 278.831 122.015C278.731 124.42 278.731 126.724 278.731 128.929Z" fill="#40BB9C"/>
<path d="M209.391 39.4495C208.79 39.3493 201.075 32.8362 200.874 32.235C200.473 31.233 201.275 30.6318 201.876 29.9304C209.091 21.5135 216.305 13.0967 223.52 4.5796C224.822 3.07659 225.924 2.97639 227.227 4.279C227.327 4.3792 227.427 4.4794 227.528 4.4794C234.842 10.291 234.943 10.3912 229.031 17.5055C223.319 24.4193 217.407 31.1328 211.496 38.0466C210.894 38.6478 210.494 39.5497 209.391 39.4495Z" fill="#40BB9C"/>
<path d="M172.317 280.332C166.505 282.436 163.199 281.935 160.994 278.929C158.89 276.023 158.89 271.514 161.195 268.308C163.499 265.001 167.307 263.999 171.916 265.602C172.417 265.803 172.818 266.103 173.52 265.903C178.229 264.5 178.229 264.6 178.229 269.21C178.229 272.717 178.429 276.224 178.129 279.731C177.528 287.146 167.708 292.055 161.195 288.248C159.091 287.045 160.894 285.643 160.894 284.34C160.994 282.336 162.297 282.737 163.6 283.138C166.806 284.039 169.812 284.641 172.317 280.332ZM172.217 272.917C172.017 271.214 171.015 270.111 169.311 270.111C167.207 270.111 166.004 271.414 165.904 273.318C165.804 274.921 166.505 276.224 168.51 276.224C170.814 276.324 171.716 274.921 172.217 272.917Z" fill="#F5F8F8"/>
<path d="M216.806 56.1828C213.9 53.7779 214.702 49.6697 213.5 46.4633C212.598 44.2589 214.101 43.9583 215.704 43.5575C217.909 43.0565 220.113 42.5555 222.317 42.0545C227.227 40.8521 232.037 39.7499 236.846 38.4472C238.75 37.9462 239.652 38.4472 239.953 40.4513C240.353 42.7559 240.854 45.1607 241.656 47.3651C242.357 49.3691 241.856 50.3711 239.752 50.7719C232.638 52.3751 225.624 54.1787 218.61 55.8822C218.209 55.9824 217.808 56.0826 216.806 56.1828Z" fill="#40BB9C"/>
<path d="M191.856 0.170694C194.762 1.0725 197.468 1.87411 200.273 2.67571C201.676 3.07651 201.977 3.97832 201.576 5.28093C199.371 12.6958 197.167 20.1106 194.963 27.5255C194.562 28.7279 193.961 29.2289 192.758 28.7279C192.658 28.7279 192.558 28.6277 192.357 28.6277C182.137 26.4233 182.137 26.4233 185.143 16.4032C186.546 11.794 187.848 7.08454 189.251 2.37511C189.752 1.0725 189.953 -0.530711 191.856 0.170694Z" fill="#40BB9C"/>
<path d="M51.0743 106.684C58.9901 106.584 58.9901 106.584 58.0883 114.5C57.3869 120.311 56.6855 126.223 55.9841 132.035C55.7837 133.638 55.4831 134.941 53.3789 134.84C51.5753 134.74 49.972 134.941 49.3708 132.536C47.467 124.921 45.3628 117.305 43.2586 109.69C42.5572 107.185 43.459 106.584 45.7636 106.684C47.5672 106.784 49.3708 106.684 51.0743 106.684Z" fill="#40BB9C"/>
<path d="M83.239 265.703C85.1428 264.4 87.5476 264.5 89.1508 265.502C90.0526 266.103 90.3532 266.104 91.0546 265.703C94.1608 264.2 97.1669 264.4 99.7721 266.805C102.077 269.009 102.578 274.019 100.974 277.426C99.3713 280.733 96.5656 283.037 92.9584 282.336C89.3512 281.635 89.3512 283.238 89.5516 285.743C89.6518 287.246 90.0526 289.049 87.3472 288.949C85.243 288.849 82.9384 289.35 83.239 286.043C83.6398 279.23 83.5396 272.516 83.239 265.703ZM95.5636 273.518C95.5636 271.615 94.9624 270.011 92.9584 270.112C90.8542 270.212 89.6518 271.715 89.5516 273.819C89.4514 275.623 90.0526 277.126 92.1568 277.126C94.5616 277.126 95.263 275.522 95.5636 273.518Z" fill="#F5F8F8"/>
<path d="M157.187 275.823C157.187 276.825 157.087 277.827 157.187 278.829C157.488 281.334 156.786 282.336 153.981 282.336C150.975 282.336 150.674 281.033 150.975 278.729C151.175 276.825 151.075 275.021 150.975 273.117C150.874 272.015 150.574 270.813 149.171 270.612C147.868 270.512 147.067 271.214 146.566 272.316C145.564 274.52 145.063 276.925 145.263 279.23C145.464 282.336 143.56 282.035 141.456 282.236C138.75 282.436 138.75 280.833 138.85 278.929C138.95 275.422 138.85 271.915 138.85 268.408C138.85 267.306 138.149 265.502 139.752 265.101C141.456 264.701 143.56 264.099 144.862 265.803C145.464 266.504 145.464 266.805 146.466 266.404C154.081 263.298 157.187 265.402 157.287 273.518C157.287 274.32 157.287 275.121 157.187 275.823Z" fill="#F5F8F8"/>
<path d="M44.9621 273.318C44.9621 271.815 44.8619 270.312 44.9621 268.809C45.0623 267.506 44.1605 265.502 45.7637 265.202C47.4671 265.001 49.8719 263.598 51.1745 266.404C51.7757 267.707 52.2767 266.404 52.7777 266.204C58.5894 263.097 62.9982 265.502 63.2988 272.115C63.399 274.22 63.2988 276.324 63.2988 278.528C63.2988 282.035 61.5954 283.238 58.1886 282.236C56.8859 281.835 57.0863 281.033 57.0863 280.232C57.0863 278.027 57.1865 275.723 57.0863 273.518C57.0863 272.216 56.7857 270.913 55.1825 270.713C53.6795 270.512 52.8779 271.614 52.3769 272.817C51.4751 275.021 51.0743 277.426 51.1745 279.831C51.2747 283.037 49.1705 282.136 47.3669 282.436C44.9621 282.737 44.6615 281.534 44.7617 279.53C44.9621 277.326 44.8619 275.322 44.9621 273.318Z" fill="#F5F8F8"/>
<path d="M152.978 168.007C152.978 178.127 152.978 178.027 143.459 178.127C140.153 178.127 138.85 177.426 139.151 173.919C139.451 169.81 139.351 165.702 139.151 161.594C139.05 159.59 139.551 158.488 141.756 158.889C142.157 158.989 142.457 158.889 142.858 158.889C146.065 159.089 150.173 157.586 152.277 159.49C154.481 161.494 152.578 165.602 152.978 168.007Z" fill="#F5F8F8"/>
<path d="M79.1309 280.833C75.3233 283.037 71.4155 283.238 67.5076 281.133C66.3052 280.532 65.0026 279.43 65.203 278.027C65.3032 276.724 67.0066 277.125 68.0087 276.725C68.6099 276.524 69.2111 276.324 70.1129 276.023C66.8063 274.119 64.702 271.815 66.4054 268.007C69.5117 264.6 73.3193 264.099 77.5277 265.602C78.9305 266.103 80.4335 267.005 80.4335 268.608C80.5337 270.211 78.4295 269.51 77.5277 270.412C75.7241 271.113 73.9205 268.107 71.8163 270.412C73.6199 271.614 75.6239 271.514 77.5277 272.015C81.5357 274.921 81.9366 277.426 79.1309 280.833ZM70.4135 276.224C71.7161 278.127 73.1189 278.027 75.1229 277.326C73.6199 275.923 72.1169 276.123 70.4135 276.224Z" fill="#F5F8F8"/>
<path d="M34.5416 270.011C34.5416 266.905 34.6418 263.698 34.5416 260.592C34.4414 257.887 36.245 258.388 37.8482 258.388C39.3512 258.388 41.2551 257.686 41.2551 260.492C41.1549 267.005 41.1549 273.518 41.2551 280.031C41.2551 283.137 39.0506 282.035 37.5476 282.236C35.744 282.436 34.4414 282.235 34.5416 279.831C34.742 276.524 34.5416 273.217 34.5416 270.011Z" fill="#F5F8F8"/>
<path d="M116.806 264.901C118.61 265.202 120.213 264.3 120.413 266.705C120.513 267.807 121.315 266.905 121.716 266.604C122.618 265.703 123.72 265.001 125.023 265.001C126.025 265.001 127.828 264.3 127.728 265.903C127.628 267.506 128.129 270.512 126.125 270.612C120.614 271.013 121.415 275.021 120.614 278.428C120.313 279.831 121.616 282.135 118.509 282.236C115.503 282.436 113.8 282.035 114.301 278.328C114.702 275.021 114.501 271.614 114.301 268.208C114.101 265.703 114.602 264.3 116.806 264.901Z" fill="#F5F8F8"/>
<path d="M86.6457 145.061C105.283 144.961 123.92 144.961 142.658 144.861C150.774 144.76 158.89 145.362 167.007 144.56C166.706 146.564 165.103 146.263 163.8 146.263C139.151 146.263 114.501 146.263 89.9523 146.263C88.6497 146.263 87.2469 146.664 86.6457 145.061Z" fill="#0A332F"/>
<path d="M135.444 273.719C135.444 275.322 135.243 277.025 135.444 278.629C135.945 282.035 134.342 282.637 131.436 282.436C129.532 282.336 128.83 281.735 128.83 279.831C128.931 275.723 128.931 271.614 128.83 267.506C128.73 264.3 131.035 265.302 132.738 265.101C134.542 264.901 135.544 265.302 135.344 267.506C135.344 269.41 135.444 271.514 135.444 273.719Z" fill="#D9E8E7"/>
<path d="M104.581 273.218C104.581 271.715 104.581 270.212 104.581 268.709C104.581 265.101 106.185 263.999 109.591 264.901C110.794 265.202 110.694 266.003 110.694 266.905C110.694 271.314 110.593 275.622 110.794 280.031C110.894 282.436 109.391 282.236 107.888 282.135C106.385 282.035 104.481 282.636 104.581 279.931C104.682 277.727 104.581 275.522 104.581 273.218Z" fill="#F5F8F8"/>
<path d="M79.1306 280.833C81.9362 277.426 81.5354 274.921 77.5274 271.915C77.5274 271.414 77.5274 270.913 77.6276 270.412C78.4292 269.51 80.5334 270.312 80.5334 268.608C80.5334 267.105 79.0304 266.103 77.6276 265.602C73.4191 264.099 69.6115 264.6 66.5053 268.007C66.5053 265.803 69.1105 263.398 71.6155 263.398C74.6215 263.398 77.6276 263.398 80.1326 265.402C81.1346 266.204 82.2368 266.103 83.339 265.602C83.5394 272.416 83.7398 279.129 83.2388 285.943C82.2368 284.039 80.6336 282.436 79.1306 280.833Z" fill="#185446"/>
<path d="M54.9828 57.0848C37.5479 57.0848 20.0128 57.0848 2.57784 56.9846C2.87844 54.9806 4.48165 55.2812 5.78426 55.2812C21.2152 55.2812 36.5459 55.2812 51.9768 55.2812C53.1792 55.3814 54.7824 54.9806 54.9828 57.0848Z" fill="#0A332F"/>
<path d="M131.836 263.598C129.732 263.498 128.329 262.296 128.529 259.891C128.63 257.687 130.032 256.584 132.237 256.584C134.642 256.584 136.145 257.787 136.145 260.091C136.044 262.496 134.441 263.598 131.836 263.598Z" fill="#D9E8E7"/>
<path d="M107.888 263.598C105.283 263.498 103.78 262.296 103.78 259.991C103.78 257.787 105.283 256.685 107.387 256.584C109.692 256.584 111.295 257.486 111.295 259.991C111.496 262.496 109.892 263.498 107.888 263.598Z" fill="#D9E8E7"/>
<path d="M153.279 246.163C152.879 229.43 152.879 212.596 153.279 195.863C154.482 196.764 154.282 198.067 154.282 199.269C154.282 213.799 154.282 228.328 154.282 242.757C154.282 243.959 154.582 245.262 153.279 246.163Z" fill="#0A332F"/>
<path d="M232.438 131.233C238.751 131.233 244.963 131.233 251.276 131.233C244.963 132.536 238.65 132.536 232.438 131.233Z" fill="#0A332F"/>
<path d="M206.085 131.233C210.895 131.233 215.604 131.233 220.414 131.233C215.604 132.436 210.895 132.436 206.085 131.233Z" fill="#0A332F"/>
<path d="M153.279 194.46C152.979 193.257 152.979 191.955 153.279 190.752C154.782 191.955 154.582 193.157 153.279 194.46Z" fill="#0A332F"/>
<path d="M113.099 108.187C105.183 108.187 105.183 108.187 106.586 100.371C107.388 95.8624 108.089 91.2532 108.59 86.6439C108.79 84.6399 109.492 83.5377 111.596 83.9385C113.5 84.3393 116.205 82.5357 116.806 86.3433C117.808 92.4556 119.011 98.668 120.514 104.68C121.215 107.686 120.514 108.588 117.608 108.187C116.105 107.987 114.602 108.187 113.099 108.187Z" fill="#0D3D3A"/>
<path d="M230.434 77.726C234.842 77.726 239.151 77.726 243.56 77.726C245.163 77.726 245.764 78.1268 245.464 79.8302C243.86 91.5537 242.257 103.377 240.754 115.101C240.554 116.904 239.652 117.005 238.349 117.005C232.337 117.005 226.325 116.904 220.313 117.005C218.51 117.005 218.009 116.403 217.908 114.7C217.107 103.478 216.205 92.2551 215.103 81.0326C214.802 78.0266 215.704 77.4254 218.51 77.5256C222.417 77.9264 226.426 77.726 230.434 77.726ZM230.734 86.744C230.133 86.744 229.432 86.8442 228.83 86.744C225.524 86.243 224.321 87.3452 224.822 90.7521C225.424 94.7601 225.824 98.9685 226.025 102.977C226.125 105.081 227.027 105.983 229.031 105.682C230.935 105.381 233.74 106.985 234.241 103.277C234.742 99.4695 235.444 95.6619 236.045 91.8543C236.846 86.6438 236.846 86.6438 231.536 86.744C231.235 86.744 231.035 86.744 230.734 86.744Z" fill="#0D3D3A"/>
<path d="M226.325 270.813C226.125 267.807 226.626 264.801 228.129 262.196C230.033 258.989 232.939 257.486 236.546 257.787C240.454 258.087 242.959 260.292 244.061 264.099C245.063 267.907 245.063 271.715 243.861 275.522C242.257 280.632 238.65 283.037 233.74 282.336C229.432 281.835 226.726 278.528 226.325 273.418C226.225 272.516 226.325 271.614 226.325 270.813ZM238.349 268.809C238.249 268.208 238.149 266.805 237.848 265.302C237.648 264.3 236.947 263.498 235.844 263.398C234.642 263.298 233.941 264.099 233.64 265.001C232.638 268.208 232.438 271.614 233.44 274.921C233.74 275.923 234.442 276.624 235.644 276.624C236.846 276.624 237.347 275.823 237.748 274.821C238.349 273.218 238.249 271.514 238.349 268.809Z" fill="#0D3D3A"/>
<path d="M202.678 282.436C196.867 282.336 195.564 281.234 196.666 277.626C197.067 276.123 197.668 275.622 199.271 276.224C200.674 276.725 202.177 277.125 203.68 276.725C204.782 276.424 205.985 276.224 206.085 274.821C206.185 273.418 205.083 272.817 203.881 272.717C202.177 272.516 200.774 272.616 200.774 270.111C200.774 267.907 201.776 267.406 203.68 267.206C205.083 267.005 205.985 265.903 205.183 264.5C204.482 263.097 203.079 263.498 201.877 263.899C200.674 264.2 200.474 266.304 198.871 265.703C197.768 265.302 196.366 264.701 195.764 263.699C194.963 262.396 196.366 261.494 197.267 260.592C199.873 257.887 204.582 256.985 208.089 258.388C211.897 259.991 213.199 264.099 211.195 267.707C210.694 268.608 209.291 269.109 210.694 270.813C214.402 275.121 212.798 279.931 207.388 281.835C205.684 282.336 203.881 282.436 202.678 282.436Z" fill="#0D3D3A"/>
<path d="M215.804 278.027C216.105 275.823 217.408 274.32 219.913 274.32C222.518 274.32 224.121 275.823 224.121 278.528C224.021 281.334 222.317 282.436 219.712 282.336C217.007 282.236 215.905 280.733 215.804 278.027Z" fill="#0D3D3A"/>
<path d="M172.218 272.917C171.717 274.921 170.815 276.424 168.51 276.324C166.606 276.324 165.805 275.021 165.905 273.418C166.005 271.414 167.208 270.212 169.312 270.212C171.015 270.112 171.917 271.214 172.218 272.917Z" fill="#27303B"/>
<path d="M95.5634 273.518C95.2628 275.422 94.5614 277.125 92.1566 277.125C90.0524 277.125 89.4512 275.622 89.5514 273.819C89.6516 271.714 90.7538 270.211 92.9582 270.111C94.9622 270.111 95.5634 271.715 95.5634 273.518Z" fill="#27303B"/>
<path d="M77.6277 270.412C77.6277 270.913 77.6277 271.414 77.5275 271.915C75.7239 271.414 73.7199 271.614 71.8161 270.312C74.0205 268.107 75.8241 271.113 77.6277 270.412Z" fill="#413A3C"/>
<path d="M70.4133 276.224C72.1167 276.123 73.6197 275.923 75.1227 277.326C73.1187 278.027 71.7159 278.127 70.4133 276.224Z" fill="#0D3D3A"/>
<path d="M230.734 86.7441C230.935 86.7441 231.235 86.7441 231.436 86.7441C236.746 86.7441 236.746 86.7441 235.945 91.8543C235.344 95.662 234.642 99.4696 234.141 103.277C233.64 106.985 230.834 105.381 228.931 105.682C226.927 105.983 226.025 105.081 225.925 102.977C225.724 98.8684 225.323 94.7601 224.722 90.7521C224.221 87.3453 225.424 86.1429 228.73 86.7441C229.532 86.8443 230.133 86.7441 230.734 86.7441Z" fill="#40BB9C"/>
<path d="M238.349 268.809C238.349 271.514 238.349 273.218 237.648 274.821C237.247 275.723 236.646 276.624 235.544 276.624C234.442 276.624 233.64 275.923 233.339 274.921C232.337 271.614 232.538 268.308 233.54 265.001C233.84 263.999 234.642 263.198 235.744 263.398C236.846 263.498 237.548 264.3 237.748 265.302C238.049 266.805 238.249 268.308 238.349 268.809Z" fill="#45BB9B"/>
</svg>
