<svg width="168" height="37" viewBox="0 0 168 37" fill="none" xmlns="http://www.w3.org/2000/svg">
<path fill-rule="evenodd" clip-rule="evenodd" d="M5.05163 0H31.7161C34.4917 0 36.7678 2.27601 36.7678 5.05163V31.7161C36.7678 34.4917 34.4917 36.7678 31.7161 36.7678H5.05163C2.27601 36.7678 0 34.4917 0 31.7161V5.05163C0 2.27601 2.27601 0 5.05163 0Z" fill="#ED1C24"/>
<path fill-rule="evenodd" clip-rule="evenodd" d="M28.1818 4.47802L27.9598 4.53353L14.1187 8.19735C14.1187 8.19735 11.6576 8.80799 11.4356 10.8805C11.4356 10.9175 11.4171 10.973 11.4171 11.01L10.3438 18.5227L14.3037 22.4826L18.2636 26.4424L25.7763 25.3692C25.8133 25.3507 25.8503 25.3507 25.9058 25.3507C27.9783 25.1287 28.5889 22.6676 28.5889 22.6676L32.2527 8.82649L32.3083 8.60444C32.4008 8.16034 32.5303 7.14261 31.9567 6.10638L23.9814 14.0817C24.2034 14.5073 24.333 14.9884 24.333 15.4695V15.5065V15.525V15.599V15.6545V15.7285C24.333 15.7841 24.333 15.8211 24.3145 15.8766C24.3145 15.8951 24.3145 15.9321 24.3145 15.9506C24.3145 16.0061 24.296 16.0431 24.296 16.0986C24.2775 16.1541 24.2775 16.1911 24.2589 16.2467C24.1849 16.5242 24.0739 16.8203 23.9259 17.0793C23.8148 17.2459 23.7038 17.4124 23.5558 17.579C23.5188 17.616 23.4818 17.653 23.4448 17.69C23.4078 17.727 23.3707 17.764 23.3337 17.801C23.2782 17.8565 23.2227 17.912 23.1487 17.949L23.0932 18.0046C23.0747 18.0231 23.0562 18.0416 23.0377 18.0416C23.0192 18.0601 23.0007 18.0786 22.9822 18.0786C22.9452 18.1156 22.8896 18.1341 22.8526 18.1526L22.7786 18.1896L22.7046 18.2266C22.6121 18.2821 22.5196 18.3191 22.427 18.3561C22.279 18.4116 22.1495 18.4672 22.0014 18.4857C21.8534 18.5227 21.7054 18.5412 21.5573 18.5597H21.4833C21.4278 18.5597 21.3908 18.5597 21.3353 18.5597H21.2613C21.2428 18.5597 21.2058 18.5597 21.1873 18.5597H21.1132C21.0577 18.5597 21.0207 18.5597 20.9652 18.5412H20.8912L20.8172 18.5227L20.7432 18.5042C20.6876 18.5042 20.6506 18.4857 20.5951 18.4672C20.5766 18.4672 20.5396 18.4487 20.5211 18.4487L20.4471 18.4301L20.3731 18.4116L20.2991 18.3931L20.225 18.3746L20.151 18.3561L20.077 18.3376C20.0585 18.3191 20.04 18.3191 20.003 18.3006L19.929 18.2636L19.855 18.2266C19.8365 18.2081 19.8179 18.2081 19.7809 18.1896C19.7624 18.1711 19.7439 18.1711 19.7069 18.1526C19.6884 18.1341 19.6699 18.1341 19.6329 18.1156L19.5589 18.0786L19.5034 18.0416L19.4479 18.0046C19.4294 17.986 19.4109 17.9675 19.3924 17.9675C19.3738 17.949 19.3553 17.9305 19.3368 17.912C19.3183 17.8935 19.2998 17.875 19.2813 17.8565C19.2628 17.838 19.2443 17.8195 19.2258 17.801C19.2073 17.7825 19.1888 17.764 19.1703 17.7455C19.1518 17.727 19.1333 17.7085 19.1148 17.69C19.0963 17.6715 19.0778 17.653 19.0593 17.6345C19.0408 17.616 19.0223 17.5975 19.0038 17.579C18.9853 17.5605 18.9668 17.5419 18.9483 17.5234C18.9298 17.5049 18.9112 17.4864 18.8927 17.4679C18.8742 17.4494 18.8557 17.4309 18.8372 17.4124C18.8187 17.3939 18.8002 17.3754 18.7817 17.3569C18.7632 17.3384 18.7447 17.3199 18.7262 17.3014C18.7077 17.2829 18.6892 17.2644 18.6892 17.2459V17.2089L18.6522 17.1534L18.6152 17.0793C18.5967 17.0608 18.5967 17.0423 18.5782 17.0053C18.5597 16.9868 18.5597 16.9683 18.5412 16.9313C18.5227 16.9128 18.5227 16.8943 18.5042 16.8573L18.4671 16.7833L18.4301 16.7093C18.4116 16.6908 18.4116 16.6723 18.3931 16.6352L18.3746 16.5612L18.3561 16.4872L18.3376 16.4687L18.3191 16.3947L18.3006 16.3207L18.2821 16.2467C18.2821 16.2282 18.2636 16.1911 18.2636 16.1726C18.2451 16.1171 18.2451 16.0801 18.2266 16.0246L18.2081 15.9506L18.1896 15.8766V15.8026C18.1896 15.747 18.1896 15.71 18.1711 15.6545V15.5805C18.1711 15.562 18.1711 15.525 18.1711 15.5065V15.4325C18.1711 15.377 18.1711 15.34 18.1711 15.2844V15.2104C18.1896 15.0624 18.2081 14.9144 18.2451 14.7663C18.2821 14.6183 18.3191 14.4888 18.3746 14.3407C18.4116 14.2482 18.4486 14.1557 18.5042 14.0632L18.5412 13.9892L18.5782 13.9151C18.5967 13.8781 18.6337 13.8226 18.6522 13.7856C18.6707 13.7671 18.6892 13.7486 18.6892 13.7301C18.7077 13.7116 18.7262 13.6931 18.7262 13.6746L18.7817 13.6191C18.8372 13.5636 18.8742 13.4895 18.9298 13.434C18.9668 13.397 19.0038 13.36 19.0408 13.323C19.0778 13.286 19.1148 13.249 19.1518 13.212C19.2998 13.0639 19.4664 12.9529 19.6514 12.8419C19.9105 12.6939 20.188 12.5828 20.4841 12.5088C20.5396 12.4903 20.5766 12.4903 20.6321 12.4718C20.6876 12.4533 20.7247 12.4533 20.7802 12.4533C20.7987 12.4533 20.8357 12.4533 20.8542 12.4348C20.9097 12.4348 20.9467 12.4163 21.0022 12.4163H21.0762H21.1317H21.2058H21.2243H21.2613C21.7424 12.4163 22.205 12.5458 22.6491 12.7679L30.6244 4.79259C29.6437 4.25597 28.6259 4.36699 28.1818 4.47802ZM5.05163 36.7863C2.27601 36.7863 0 34.5103 0 31.7346V30.6244L6.2174 24.407L9.30759 27.4972L12.3978 30.5689L6.18039 36.7863H5.05163ZM10.2143 26.572L6.51346 22.8711C5.64377 21.9829 5.64377 20.5396 6.53197 19.6514C7.42017 18.7632 8.88199 18.7632 9.77019 19.6514L13.4525 23.3337L17.1348 27.0161C18.023 27.9043 18.023 29.3661 17.1348 30.2543C16.2466 31.1425 14.8033 31.1425 13.9151 30.2728L10.2143 26.572Z" fill="white"/>
<path fill-rule="evenodd" clip-rule="evenodd" d="M133.433 11.6206L133.452 6.38391H128.271L128.252 11.6206H132.194H133.433Z" fill="#ED1C24"/>
<path fill-rule="evenodd" clip-rule="evenodd" d="M161.259 20.5813L161.722 22.6167H167.218L162.147 6.25906H156.411L151.434 22.6167H156.929L159.242 11.7178L160.371 16.7139L161.259 20.5813ZM42.2961 34.774H44.9792L45.3122 31.0361C45.3493 30.6845 45.3678 30.333 45.3863 29.9814H45.4788C45.4973 30.3515 45.5713 30.703 45.6453 31.0731L46.6445 34.774H48.2729L49.3832 30.8511C49.4572 30.5735 49.5127 30.2775 49.5682 29.9814H49.6237L49.9938 34.774H52.6769L51.4186 26.0215H48.5875L47.7178 29.4633C47.6253 29.8334 47.5697 30.2404 47.5327 30.629H47.4587L46.404 26.04H43.5543L42.2961 34.774ZM64.6121 33.6822H66.703L66.9621 34.774H69.9043L67.1842 26.0215H64.1125L61.4664 34.774H64.4085L64.6121 33.6822ZM65.1117 31.6097L65.6113 28.9452H65.7038C65.7593 29.3152 65.7963 29.7038 65.8889 30.0739L66.2219 31.6097H65.1117ZM79.0453 34.774H81.7469L81.6914 31.1101H81.7469C81.8024 31.4617 82.043 31.7948 82.2095 32.1279L83.5233 34.774H86.743L84.097 30.2775L86.484 26.0215H83.4493L82.117 28.8341C81.969 29.1487 81.7839 29.4633 81.7284 29.8148H81.6729L81.7284 26.0215H79.0453V34.774ZM98.3637 33.6822H100.455L100.714 34.774H103.656L100.936 26.0215H97.864L95.218 34.774H98.1601L98.3637 33.6822ZM98.8633 31.6097L99.3629 28.9452H99.4554C99.5109 29.3152 99.5479 29.7038 99.6404 30.0739L99.9735 31.6097H98.8633ZM112.39 34.1078C113.26 34.6074 114.37 34.9035 115.332 34.9035C116.979 34.9035 118.644 33.8673 118.644 31.7763C118.644 30.296 117.793 29.5743 116.627 29.2782L115.998 29.1117C115.795 29.0562 115.443 29.0007 115.443 28.6861C115.443 28.3345 115.795 28.2235 116.035 28.2235C116.627 28.2235 117.164 28.5196 117.645 28.8896L118.404 26.6506C117.645 26.1325 116.849 25.892 115.98 25.892C114.314 25.892 112.667 27.0577 112.667 29.1302C112.667 30.4995 113.574 31.2212 114.666 31.4432L115.221 31.5542C115.48 31.6098 115.832 31.6468 115.832 32.0353C115.832 32.4239 115.387 32.5535 115.128 32.5535C114.499 32.5535 113.889 32.2019 113.389 31.7578L113.241 31.6283L112.39 34.1078ZM127.656 34.1078C128.525 34.6074 129.636 34.9035 130.598 34.9035C132.245 34.9035 133.91 33.8673 133.91 31.7763C133.91 30.296 133.059 29.5743 131.893 29.2782L131.264 29.1117C131.061 29.0562 130.709 29.0007 130.709 28.6861C130.709 28.3345 131.061 28.2235 131.301 28.2235C131.893 28.2235 132.43 28.5196 132.911 28.8896L133.67 26.6506C132.911 26.1325 132.115 25.892 131.246 25.892C129.58 25.892 127.933 27.0577 127.933 29.1302C127.933 30.4995 128.84 31.2212 129.932 31.4432L130.487 31.5542C130.746 31.6098 131.098 31.6468 131.098 32.0353C131.098 32.4239 130.653 32.5535 130.394 32.5535C129.765 32.5535 129.155 32.2019 128.655 31.7578L128.507 31.6283L127.656 34.1078ZM145.79 33.6822H147.881L148.14 34.774H151.082L148.362 26.0215H145.29L142.644 34.774H145.586L145.79 33.6822ZM146.271 31.6097L146.771 28.9452H146.863C146.919 29.3152 146.956 29.7038 147.048 30.0739L147.381 31.6097H146.271ZM160.205 34.774H162.925V31.9613H162.98L164.201 34.774H167.403L165.737 31.9243C165.589 31.6653 165.404 31.5357 165.275 31.4062V31.3322C166.311 30.9436 166.755 30.3885 166.755 29.0562C166.755 26.8542 165.293 26.0215 163.572 26.0215H160.223V34.774H160.205ZM162.906 28.427H163.11C163.591 28.427 163.998 28.5011 163.998 29.1857C163.998 29.8334 163.535 29.9074 163.091 29.9074H162.906V28.427ZM75.3445 15.7702L75.6035 16.2698C75.7701 16.6954 76.0291 17.1025 76.2512 17.5096L76.2697 17.5466L76.3437 17.6946L78.8048 22.6352H84.8186L79.8965 14.2343L84.3745 6.27756H78.7122L76.2142 11.5327C76.1032 11.7733 75.9736 11.9953 75.8626 12.2359V12.2544C75.8256 12.3469 75.7701 12.458 75.7331 12.5505L75.3815 13.3647L75.511 6.27756H70.4594L70.4409 22.6352H75.4925L75.3445 15.7702ZM58.4872 22.6167H68.2389V18.1572H63.7239V16.5474H67.7208V12.2914H63.7239V10.7371H68.0909V6.27756H58.5057L58.4872 22.6167ZM52.0107 6.25906L49.7717 15.4186L49.1611 13.1981L47.4032 6.25906H42L47.4957 22.6167H51.8812L57.4325 6.25906H52.0107ZM84.9296 11.5883H87.7793L87.7608 22.6167H92.9419L92.9604 11.5883H95.8101V6.27756H84.9111L84.9296 11.5883ZM104.581 6C100.251 6 96.6798 9.33075 96.6798 14.4749C96.6798 19.7301 100.196 22.8758 104.563 22.8758C108.911 22.8758 112.464 19.7301 112.464 14.4749C112.464 9.34925 108.911 6 104.581 6ZM104.581 11.3847C106.228 11.3847 107.246 12.8465 107.246 14.5674C107.246 16.4363 106.135 17.7131 104.581 17.7131C103.008 17.7131 101.916 16.4363 101.916 14.5674C101.898 12.828 102.934 11.3847 104.581 11.3847ZM124.51 17.158L123.936 16.1218C125.731 15.3816 126.49 14.3269 126.508 11.9583C126.508 7.83191 123.788 6.27756 120.569 6.27756H114.314L114.296 22.6352H119.366V17.3801L121.716 22.6352H127.693L124.603 17.3245C124.566 17.2505 124.547 17.195 124.51 17.158ZM119.366 10.7371H119.754C120.643 10.7371 121.42 10.8851 121.42 12.1434C121.42 13.3647 120.569 13.5127 119.717 13.5127H119.366V10.7371ZM128.636 22.6167H133.818L133.836 11.4957L128.766 15.5852L128.636 22.6167ZM141.127 17.306L141.182 14.4564L145.512 22.6167H150.471L150.49 6.25906H145.531L145.679 15.0855L141.164 6.25906H136.186L136.168 22.6167H141.127V17.306Z" fill="white"/>
</svg>
