<svg id="menu-24px" xmlns="http://www.w3.org/2000/svg" width="48" height="48" viewBox="0 0 48 48">
  <path id="Path_1" data-name="Path 1" d="M0,0H48V48H0Z" fill="none"/>
  <path id="Path_2" data-name="Path 2" d="M5,30.172H36.919a2.014,2.014,0,0,0,0-4.029H5a2.014,2.014,0,0,0,0,4.029ZM5,20.1H36.919a2.014,2.014,0,0,0,0-4.029H5A2.014,2.014,0,0,0,5,20.1ZM3,8.014a2.011,2.011,0,0,0,2,2.014H36.919a2.014,2.014,0,0,0,0-4.029H5A2.011,2.011,0,0,0,3,8.014Z" transform="translate(3.043 5.914)" fill="#b5b5b5"/>
</svg>
