<svg width="386" height="80" viewBox="0 0 386 80" fill="none" xmlns="http://www.w3.org/2000/svg">
<path d="M63.15 20.4286L74.15 19.1429L385.007 12.1429L376.436 69.2857L50.0071 60.7143L63.15 20.4286Z" fill="#297F66"/>
<path d="M0.292847 24.7143L46.0071 0L87.15 28.1429L53.4357 80L13.5786 69L0.292847 24.7143Z" fill="#43C5A3"/>
<path d="M112.829 43.2388V49H109.46V32.6484H115.839C117.067 32.6484 118.145 32.873 119.073 33.3223C120.009 33.7715 120.728 34.4116 121.229 35.2427C121.731 36.0662 121.982 37.0059 121.982 38.0615C121.982 39.6637 121.432 40.929 120.331 41.8574C119.238 42.7783 117.722 43.2388 115.783 43.2388H112.829ZM112.829 40.5098H115.839C116.73 40.5098 117.407 40.3001 117.872 39.8809C118.343 39.4616 118.579 38.8626 118.579 38.084C118.579 37.2829 118.343 36.6353 117.872 36.1411C117.4 35.647 116.749 35.3924 115.917 35.3774H112.829V40.5098ZM134.145 41.9136H127.676V46.2935H135.268V49H124.307V32.6484H135.245V35.3774H127.676V39.2744H134.145V41.9136ZM141.646 32.6484L145.847 44.5078L150.024 32.6484H154.449V49H151.069V44.5303L151.406 36.8149L146.992 49H144.679L140.276 36.8262L140.613 44.5303V49H137.244V32.6484H141.646ZM166.825 45.6309H160.918L159.795 49H156.212L162.299 32.6484H165.421L171.542 49H167.959L166.825 45.6309ZM161.828 42.9019H165.916L163.86 36.7812L161.828 42.9019ZM184.03 35.3774H179.021V49H175.652V35.3774H170.711V32.6484H184.03V35.3774ZM195.8 41.9136H189.331V46.2935H196.923V49H185.962V32.6484H196.9V35.3774H189.331V39.2744H195.8V41.9136ZM204.953 43.0142H202.269V49H198.899V32.6484H204.975C206.907 32.6484 208.397 33.0789 209.445 33.9399C210.493 34.8009 211.017 36.0176 211.017 37.5898C211.017 38.7054 210.774 39.6375 210.287 40.3862C209.808 41.1274 209.078 41.7189 208.097 42.1606L211.635 48.8428V49H208.019L204.953 43.0142ZM202.269 40.2852H204.986C205.832 40.2852 206.487 40.0718 206.952 39.645C207.416 39.2108 207.648 38.6156 207.648 37.8594C207.648 37.0882 207.427 36.4818 206.985 36.04C206.551 35.5983 205.881 35.3774 204.975 35.3774H202.269V40.2852ZM217.171 49H213.802V32.6484H217.171V49ZM238.768 44.2832L240.969 32.6484H244.327L240.699 49H237.308L234.646 38.0615L231.984 49H228.593L224.965 32.6484H228.323L230.536 44.2607L233.231 32.6484H236.083L238.768 44.2832ZM259.589 41.1948C259.589 42.8045 259.304 44.2158 258.735 45.4287C258.166 46.6416 257.35 47.5775 256.287 48.2363C255.231 48.8952 254.019 49.2246 252.648 49.2246C251.293 49.2246 250.084 48.8989 249.021 48.2476C247.958 47.5962 247.134 46.6678 246.55 45.4624C245.966 44.2495 245.671 42.8569 245.663 41.2847V40.4761C245.663 38.8664 245.951 37.4513 246.528 36.231C247.112 35.0031 247.932 34.0635 248.987 33.4121C250.05 32.7533 251.263 32.4238 252.626 32.4238C253.989 32.4238 255.198 32.7533 256.253 33.4121C257.317 34.0635 258.136 35.0031 258.713 36.231C259.297 37.4513 259.589 38.8626 259.589 40.4648V41.1948ZM256.175 40.4536C256.175 38.7391 255.868 37.4364 255.254 36.5454C254.64 35.6545 253.764 35.209 252.626 35.209C251.495 35.209 250.623 35.6507 250.009 36.5342C249.395 37.4102 249.085 38.6979 249.077 40.3975V41.1948C249.077 42.8644 249.384 44.1597 249.998 45.0806C250.612 46.0015 251.495 46.4619 252.648 46.4619C253.779 46.4619 254.647 46.0202 255.254 45.1367C255.86 44.2458 256.167 42.9505 256.175 41.251V40.4536ZM268.09 43.0142H265.406V49H262.037V32.6484H268.113C270.044 32.6484 271.534 33.0789 272.583 33.9399C273.631 34.8009 274.155 36.0176 274.155 37.5898C274.155 38.7054 273.911 39.6375 273.425 40.3862C272.946 41.1274 272.216 41.7189 271.235 42.1606L274.772 48.8428V49H271.156L268.09 43.0142ZM265.406 40.2852H268.124C268.97 40.2852 269.625 40.0718 270.089 39.645C270.554 39.2108 270.786 38.6156 270.786 37.8594C270.786 37.0882 270.565 36.4818 270.123 36.04C269.689 35.5983 269.019 35.3774 268.113 35.3774H265.406V40.2852ZM281.848 42.4414L280.096 44.3281V49H276.727V32.6484H280.096V40.0605L281.578 38.0278L285.745 32.6484H289.889L284.083 39.9146L290.057 49H286.048L281.848 42.4414ZM299.805 44.71C299.805 44.0736 299.581 43.5869 299.131 43.25C298.682 42.9056 297.874 42.5462 296.706 42.1719C295.538 41.79 294.613 41.4157 293.932 41.0488C292.075 40.0456 291.146 38.6942 291.146 36.9946C291.146 36.1112 291.394 35.325 291.888 34.6362C292.389 33.9399 293.104 33.3971 294.033 33.0078C294.969 32.6185 296.017 32.4238 297.177 32.4238C298.345 32.4238 299.386 32.6372 300.299 33.064C301.213 33.4832 301.92 34.0785 302.422 34.8496C302.931 35.6208 303.186 36.4967 303.186 37.4775H299.816C299.816 36.7288 299.581 36.1486 299.109 35.7368C298.637 35.3175 297.975 35.1079 297.121 35.1079C296.298 35.1079 295.657 35.2839 295.201 35.6357C294.744 35.9801 294.516 36.4368 294.516 37.0059C294.516 37.5374 294.781 37.9829 295.313 38.3423C295.852 38.7017 296.642 39.0386 297.683 39.353C299.599 39.9295 300.996 40.6445 301.872 41.498C302.748 42.3516 303.186 43.4147 303.186 44.6875C303.186 46.1025 302.65 47.2144 301.58 48.0229C300.509 48.8241 299.068 49.2246 297.256 49.2246C295.998 49.2246 294.853 48.9963 293.819 48.5396C292.786 48.0754 291.996 47.4427 291.45 46.6416C290.911 45.8405 290.641 44.9121 290.641 43.8564H294.021C294.021 45.6608 295.1 46.563 297.256 46.563C298.057 46.563 298.682 46.402 299.131 46.0801C299.581 45.7507 299.805 45.2939 299.805 44.71ZM318.785 49H315.416V41.9922H308.846V49H305.477V32.6484H308.846V39.2744H315.416V32.6484H318.785V49ZM335.17 41.1948C335.17 42.8045 334.885 44.2158 334.316 45.4287C333.747 46.6416 332.931 47.5775 331.868 48.2363C330.812 48.8952 329.6 49.2246 328.229 49.2246C326.874 49.2246 325.665 48.8989 324.602 48.2476C323.539 47.5962 322.715 46.6678 322.131 45.4624C321.547 44.2495 321.252 42.8569 321.244 41.2847V40.4761C321.244 38.8664 321.532 37.4513 322.109 36.231C322.693 35.0031 323.513 34.0635 324.568 33.4121C325.632 32.7533 326.844 32.4238 328.207 32.4238C329.57 32.4238 330.779 32.7533 331.834 33.4121C332.898 34.0635 333.717 35.0031 334.294 36.231C334.878 37.4513 335.17 38.8626 335.17 40.4648V41.1948ZM331.756 40.4536C331.756 38.7391 331.449 37.4364 330.835 36.5454C330.221 35.6545 329.345 35.209 328.207 35.209C327.076 35.209 326.204 35.6507 325.59 36.5342C324.976 37.4102 324.666 38.6979 324.658 40.3975V41.1948C324.658 42.8644 324.965 44.1597 325.579 45.0806C326.193 46.0015 327.076 46.4619 328.229 46.4619C329.36 46.4619 330.229 46.0202 330.835 45.1367C331.441 44.2458 331.748 42.9505 331.756 41.251V40.4536ZM340.987 43.2388V49H337.618V32.6484H343.997C345.225 32.6484 346.303 32.873 347.231 33.3223C348.167 33.7715 348.886 34.4116 349.388 35.2427C349.889 36.0662 350.14 37.0059 350.14 38.0615C350.14 39.6637 349.59 40.929 348.489 41.8574C347.396 42.7783 345.88 43.2388 343.941 43.2388H340.987ZM340.987 40.5098H343.997C344.888 40.5098 345.566 40.3001 346.03 39.8809C346.501 39.4616 346.737 38.8626 346.737 38.084C346.737 37.2829 346.501 36.6353 346.03 36.1411C345.558 35.647 344.907 35.3924 344.076 35.3774H340.987V40.5098Z" fill="white"/>
</svg>
