<svg width="188" height="196" viewBox="0 0 188 196" fill="none" xmlns="http://www.w3.org/2000/svg">
<path d="M36.5865 158.706L0 72.8021L18.2932 30.4063L113.838 5.68573L164.763 31.3951L160.437 51.7896L188 63.5319L170.078 123.479L80.0947 155.616L36.5865 158.706Z" fill="#175546"/>
<path d="M133.244 0L141.278 2.22485L136.334 19.6529L128.423 18.046L133.244 0Z" fill="#43C5A3"/>
<path d="M157.099 1.73047L139.424 21.7541L146.099 26.6983L163.65 7.5398L157.099 1.73047Z" fill="#43C5A3"/>
<path d="M148.941 30.0355L150.919 38.1933L169.089 34.1144L166.987 25.7094L148.941 30.0355Z" fill="#43C5A3"/>
<path d="M3.46088 148.694L181.82 141.649L171.932 195.416L9.02301 188.618L3.46088 148.694Z" fill="#278064"/>
<path d="M0 176.01L2.10125 180.955L12.2367 177.246L7.29257 186.887L11.6187 190.225L20.1473 174.156L17.0572 170.078L0 176.01Z" fill="#43C5A3"/>
<path d="M179.966 119.524L173.168 135.469L165.133 132.379L159.077 150.425L165.752 153.638L169.089 141.649L176.258 145.851L186.146 122.861L179.966 119.524Z" fill="#43C5A3"/>
</svg>
