<svg width="1366" height="253" viewBox="0 0 1366 253" fill="none" xmlns="http://www.w3.org/2000/svg">
<path fill-rule="evenodd" clip-rule="evenodd" d="M2.82978 236.301C2.73608 235.121 2.64238 233.942 2.52994 232.762C2.52994 232.397 2.56293 232.015 2.59614 231.631L2.59617 231.631C2.74693 229.887 2.90232 228.089 0 227.537V227V222.481V68V12V0H180.132H184H1292H1357.06H1366V8.93286V47H1365.96C1365.95 53.8326 1365.93 60.667 1365.92 67.5015L1365.92 67.6714C1365.87 87.2649 1365.83 106.858 1365.83 126.409C1362.7 127.02 1359.57 127.665 1356.42 128.313L1356.41 128.315C1352.61 129.098 1348.79 129.886 1344.92 130.623C1341.88 131.129 1340.53 132.309 1340.87 135.511C1342.05 144.272 1342.89 153.033 1343.74 161.795L1343.74 161.804C1343.91 164.838 1345.76 164.838 1348.12 164.332C1348.56 164.231 1349.02 164.177 1349.48 164.124C1351.27 163.914 1352.91 163.722 1352.51 160.624C1352.29 158.893 1352.26 157.161 1352.23 155.443V155.442C1352.19 153.147 1352.15 150.874 1351.66 148.657C1350.82 144.107 1352.84 142.927 1356.55 142.759C1358.16 142.674 1359.72 142.59 1361.28 142.506C1362.84 142.421 1364.4 142.337 1366 142.253V180.681L1363.57 181.105L1361.27 181.506L1361.25 181.508L1361.24 181.51C1352.16 183.091 1342.97 184.691 1333.79 186.412C1329.57 187.255 1327.38 186.749 1326.87 181.524C1325.94 171.495 1324.85 161.466 1323.75 151.437C1322.65 141.409 1321.56 131.381 1320.63 121.353C1320.12 116.802 1318.61 116.297 1314.56 117.139L1314.3 117.199C1309.67 118.252 1307.42 118.766 1306.45 120.167C1305.52 121.5 1305.75 123.635 1306.19 127.799L1306.19 127.801L1306.29 128.769C1306.72 132.591 1307.14 136.407 1307.57 140.22C1309.53 157.763 1311.49 175.233 1312.87 192.817C1313.38 199.053 1315.74 199.896 1321.14 198.884C1336.15 196.188 1350.99 193.828 1366 191.468V210.682L1365.95 210.69C1344.55 214.058 1323.14 217.427 1301.74 221.132C1297.69 221.806 1296.68 220.795 1296.34 216.919C1295.42 207.068 1294.4 197.259 1293.39 187.45L1293.39 187.418C1292.38 177.602 1291.37 167.786 1290.44 157.927C1289.93 153.545 1288.42 152.197 1284.2 152.197C1279.65 152.059 1279.16 154.851 1278.67 157.624C1278.56 158.242 1278.45 158.86 1278.3 159.445C1272.65 182.142 1267.13 204.958 1261.62 227.694L1261.62 227.717C1260.54 232.155 1259.47 236.59 1258.39 241.021C1257.38 245.234 1255.36 246.92 1250.97 246.751C1241.36 246.414 1231.91 246.414 1222.47 246.751C1217.58 247.088 1216.23 244.897 1215.89 240.684C1214.71 228.548 1213.36 216.413 1212.01 204.278C1210.58 190.963 1209.1 177.691 1207.63 164.419C1206.15 151.146 1204.67 137.872 1203.24 124.555C1202.9 121.69 1202.23 120.342 1199.02 121.016C1189.75 123.207 1180.47 125.23 1171.19 127.084C1168.66 127.589 1167.65 128.938 1167.99 131.466L1171.03 157.759C1171.19 159.445 1171.53 161.467 1173.89 160.961C1174.26 160.895 1174.66 160.855 1175.07 160.813L1175.07 160.813C1176.74 160.645 1178.58 160.46 1179.12 158.433C1179.46 156.579 1179.29 154.557 1179.12 152.703L1179.12 152.678C1178.79 145.754 1178.62 142.305 1180.26 140.525C1181.89 138.757 1185.31 138.636 1192.11 138.394L1192.61 138.376C1196.33 138.208 1197.67 139.387 1197.84 143.264C1198.18 152.703 1198.86 162.141 1199.87 171.58C1200.2 174.951 1199.02 175.962 1195.99 176.468L1195.98 176.468L1195.98 176.469L1195.97 176.47C1183.33 178.66 1170.68 180.851 1158.04 183.209C1155 183.715 1153.99 183.041 1153.65 179.839C1152.44 166.906 1151.08 154.045 1149.71 141.163C1148.99 134.402 1148.28 127.635 1147.58 120.847C1147.16 116.745 1146.95 114.68 1145.83 113.868C1144.7 113.047 1142.63 113.51 1138.48 114.441L1138.48 114.442L1138.47 114.443C1138.08 114.529 1137.69 114.601 1137.29 114.674L1137.29 114.675C1134.6 115.166 1131.98 115.642 1132.57 120.342C1135.15 142.867 1137.42 165.545 1139.67 188.084L1139.99 191.3C1140.33 195.176 1141.34 196.356 1145.39 195.682C1157.2 193.491 1169.17 191.637 1180.98 189.951C1194.11 187.957 1194.13 188.093 1196.07 201.345L1196.16 201.918C1196.66 205.458 1195.82 206.974 1192.28 207.48C1171.03 210.851 1149.94 214.222 1128.69 217.761C1124.98 218.267 1123.46 217.424 1123.13 213.379C1122.2 203.521 1121.14 193.704 1120.09 183.887L1120.09 183.854C1119.03 174.046 1117.98 164.238 1117.05 154.388C1116.55 150.006 1115.2 148.489 1110.81 148.657C1106.79 148.806 1106.19 151.191 1105.52 153.836L1105.52 153.844L1105.52 153.852C1105.43 154.197 1105.34 154.545 1105.25 154.894C1101.87 168.712 1098.46 182.489 1095.04 196.266L1095.02 196.361C1091.61 210.11 1088.2 223.859 1084.84 237.65C1083.83 241.864 1081.97 243.38 1077.59 243.212C1068.31 242.875 1059.03 242.875 1049.76 243.212C1044.87 243.38 1043.01 241.695 1042.5 236.976C1040.48 216.244 1038.29 195.513 1035.93 174.782C1035.33 169.448 1034.72 164.096 1034.11 158.738C1032.81 147.336 1031.51 135.907 1030.36 124.555C1029.86 120.005 1028.34 118.993 1023.95 120.173C1017.45 121.896 1010.75 123.202 1004.08 124.501C1002.27 124.854 1000.46 125.206 998.652 125.567C996.122 126.073 994.267 126.747 994.604 129.949C995.111 134.248 995.575 138.547 996.039 142.846C996.502 147.143 996.966 151.44 997.472 155.737C997.488 155.88 997.499 156.028 997.509 156.181C997.516 156.291 997.521 156.402 997.527 156.515C997.602 157.91 997.685 159.472 999.664 159.613C1001.52 159.781 1003.71 159.95 1005.06 158.602C1006.4 157.261 1006.14 155.494 1005.9 153.809L1005.9 153.808C1005.83 153.375 1005.77 152.948 1005.74 152.534L1005.74 152.509C1005.39 145.282 1005.23 141.749 1006.91 139.871C1008.52 138.077 1011.81 137.792 1018.25 137.237L1018.72 137.197C1023.11 136.691 1024.46 138.376 1024.63 142.253C1024.71 143.744 1024.79 145.236 1024.87 146.727L1024.87 146.764V146.767C1025.27 154.36 1025.67 161.933 1026.65 169.389C1027.16 173.771 1025.64 174.951 1021.93 175.625C1009.8 177.645 997.841 179.833 985.882 182.021L985.834 182.03C982.292 182.704 980.774 181.861 980.437 178.153C979.78 171.806 979.069 165.44 978.358 159.063L978.355 159.043L978.355 159.042C976.875 145.783 975.39 132.473 974.365 119.162C973.859 112.589 971.666 111.915 965.932 113.094C960.703 114.274 958.679 115.454 959.523 121.69C962.39 144.106 964.414 166.522 966.438 188.938L966.438 188.94C966.944 193.828 967.787 195.682 973.184 194.671C984.46 192.499 995.846 190.764 1007.25 189.026L1007.27 189.024C1010.02 188.605 1012.77 188.186 1015.52 187.76C1015.63 187.742 1015.75 187.724 1015.87 187.705L1015.93 187.694C1018.04 187.355 1020.43 186.97 1020.75 190.288C1020.94 191.785 1021.3 193.267 1021.66 194.748L1021.66 194.75C1022.55 198.439 1023.44 202.115 1021.76 205.963C1021.64 206.198 1021.2 206.269 1020.71 206.347L1020.71 206.348C1020.5 206.382 1020.28 206.418 1020.07 206.469L955.306 217.087C951.427 217.761 950.246 216.076 949.909 212.368C948.672 199.67 947.285 186.972 945.898 174.274C945.205 167.926 944.512 161.578 943.837 155.231C943.8 154.916 943.783 154.591 943.776 154.261C943.77 153.978 943.77 153.693 943.771 153.407C943.776 150.992 943.782 148.589 939.62 148.321C934.898 147.983 933.043 149.837 932.031 154.388C928.932 167.249 925.759 180.11 922.582 192.988L922.582 192.99L922.58 192.994L922.561 193.073C918.999 207.509 915.433 221.966 911.96 236.47C910.779 240.852 909.092 242.538 904.37 242.369C895.431 241.864 886.154 241.695 877.215 242.369C871.143 242.875 869.457 240.178 869.288 235.122C869.288 233.942 869.119 232.594 868.951 231.414C867.095 213.801 865.156 196.229 863.216 178.659C861.277 161.088 859.337 143.517 857.482 125.904C857.144 122.533 856.132 121.353 852.759 122.027L852.719 122.036C843.456 124.056 834.193 126.075 824.93 127.927C822.4 128.432 821.051 129.443 821.388 132.14C821.63 134.276 821.872 136.422 822.114 138.573C822.378 140.917 822.641 143.267 822.905 145.617C823.411 150.128 823.918 154.639 824.424 159.107C824.761 161.973 826.279 162.141 828.809 161.635C833.772 160.831 833.188 157.681 832.656 154.815C832.519 154.077 832.385 153.358 832.351 152.703L832.338 152.21C832.011 140.062 832.011 140.055 844.495 139.556H845.169C849.555 138.713 851.073 140.567 851.241 144.949C851.747 154.051 852.591 163.153 853.434 172.085C853.771 175.288 852.928 177.142 849.386 177.647C837.58 179.67 825.773 181.693 813.967 183.884C809.581 184.726 807.558 184.052 807.052 178.827C805.809 164.916 804.291 151.096 802.768 137.232C802.225 132.284 801.681 127.33 801.148 122.364C800.648 118.115 800.395 115.967 799.208 115.104C797.993 114.222 795.801 114.685 791.366 115.623C791.164 115.667 790.964 115.708 790.767 115.747C790.595 115.781 790.425 115.813 790.257 115.845C787.71 116.33 785.694 116.713 786.137 120.847C788.836 144.107 791.197 167.366 793.39 190.625C793.896 195.682 795.751 197.536 800.98 196.525C807.142 195.37 813.304 194.435 819.466 193.5L819.486 193.497C824.112 192.796 828.737 192.094 833.363 191.3C840.48 190.114 844.022 189.524 846.063 191.004C848.084 192.47 848.632 195.968 849.723 202.929C850.229 206.806 849.049 207.986 845.338 208.66C826.744 211.609 808.278 214.688 789.716 217.782L781.752 219.11C778.21 219.784 776.861 218.773 776.524 215.065C775.242 201.554 773.798 188.043 772.361 174.587L772.36 174.578L772.359 174.569L772.354 174.52C771.714 168.527 771.075 162.545 770.452 156.579C770.396 156.102 770.372 155.605 770.349 155.109C770.232 152.628 770.114 150.146 765.898 150.006C761.175 149.837 759.826 151.86 758.814 155.905C755.964 167.809 753.019 179.681 750.075 191.548C746.224 207.071 742.375 222.586 738.743 238.156C737.394 243.38 735.201 244.729 730.141 244.56C721.539 244.054 712.769 244.223 704.167 244.56C698.939 244.897 696.409 243.549 695.903 237.65C694.654 224.037 693.1 210.348 691.548 196.686L691.548 196.678C690.794 190.043 690.042 183.415 689.325 176.805C687.47 159.613 685.614 142.59 683.59 125.398C683.524 124.968 683.516 124.473 683.509 123.964V123.963C683.476 121.88 683.44 119.562 679.374 120.51C673.775 121.809 668.117 122.93 662.47 124.049C658.591 124.818 654.716 125.586 650.87 126.409C648.846 126.915 647.497 127.758 647.834 130.286C648.905 138.389 649.837 146.632 650.756 154.76L650.758 154.778L651.038 157.253C651.207 159.276 651.882 160.624 654.074 160.287C654.479 160.22 654.904 160.186 655.329 160.152C657.029 160.018 658.729 159.883 659.134 157.591C659.472 155.737 659.303 153.714 659.134 151.86C658.8 145.003 658.631 141.548 660.276 139.787C661.946 137.998 665.488 137.956 672.625 137.871H672.627H673.302C676.507 137.365 677.687 138.713 677.856 142.084C678.362 151.523 679.036 160.961 680.048 170.4C680.554 174.445 678.868 175.793 674.989 176.468L673.388 176.722C662.27 178.492 651.019 180.284 640.075 182.535C635.184 183.547 634.004 182.367 633.497 177.479C632.392 165.225 631.107 153.03 629.82 140.824L629.82 140.821C628.947 132.547 628.075 124.267 627.257 115.96C626.92 113.263 626.245 112.252 623.378 112.926C621.185 113.6 618.993 114.106 616.631 114.443C613.258 114.948 612.415 116.465 612.752 120.005C615.451 143.095 617.812 166.018 620.005 189.109C620.51 194.671 622.028 196.188 627.763 195.008C638.712 192.792 649.889 191.145 661.013 189.506C663.426 189.15 665.837 188.795 668.242 188.434C668.415 188.41 668.592 188.379 668.773 188.344C669.004 188.3 669.241 188.249 669.48 188.198L669.48 188.198C671.599 187.746 673.893 187.256 674.314 190.625C674.518 192.256 674.938 193.855 675.354 195.443C676.315 199.107 677.26 202.706 675.495 206.469C675.37 206.842 674.603 206.94 673.871 207.033C673.61 207.066 673.354 207.099 673.133 207.143L665.487 208.375C647.087 211.337 628.59 214.316 610.222 217.424C605.331 218.267 603.644 217.087 603.138 211.862C601.922 198.932 600.56 186.073 599.196 173.193C598.48 166.43 597.763 159.66 597.066 152.871C596.729 150.343 596.054 149.163 593.356 148.995C588.971 148.657 586.778 150.006 585.597 154.725C582.308 168.546 578.893 182.324 575.478 196.103L575.473 196.121C572.059 209.894 568.645 223.667 565.358 237.481C564.346 241.864 562.49 243.38 558.105 243.212C552.437 242.85 546.683 242.92 540.966 242.989H540.964H540.947L540.929 242.989C538.663 243.016 536.402 243.043 534.155 243.043C528.906 243.043 526.291 243.043 524.847 241.743C523.412 240.452 523.132 237.88 522.572 232.754L522.517 232.256L510.88 125.567C510.542 122.365 509.53 121.016 506.157 121.859C496.881 123.881 487.604 125.904 478.328 127.758C476.304 128.095 474.617 128.769 474.954 131.297C475.304 134.498 475.673 137.679 476.042 140.854C476.742 146.873 477.438 152.87 477.99 158.939C478.328 161.635 479.677 162.141 481.87 161.804C485.918 161.467 486.93 159.781 486.424 155.568C484.568 140.062 485.243 139.556 500.085 139.387C503.29 139.387 504.639 140.23 504.808 143.433C505.482 153.208 506.157 162.815 507.169 172.423C507.506 175.962 506.157 177.142 502.784 177.647C491.146 179.501 479.508 181.524 468.039 183.884C462.811 184.895 461.124 183.884 460.618 178.322C459.269 162.411 457.488 146.5 455.707 130.59C455.261 126.612 454.816 122.634 454.378 118.656C454.373 118.619 454.37 118.581 454.366 118.543C454.361 118.48 454.356 118.417 454.352 118.353C454.339 118.123 454.335 117.885 454.331 117.643C454.31 116.337 454.287 114.939 452.691 114.274C448.137 112.083 439.704 117.645 440.21 122.701C442.571 145.455 444.932 168.377 447.125 191.131C447.631 195.85 449.655 197.199 454.209 196.356C461.93 194.974 469.73 193.75 477.555 192.521L477.626 192.51C481.23 191.944 484.839 191.377 488.448 190.794L488.534 190.779C494.891 189.693 498.033 189.156 499.858 190.46C501.642 191.736 502.168 194.771 503.208 200.771L503.29 201.244C504.133 206.3 502.784 207.986 497.893 208.66C477.484 211.694 457.245 215.065 436.837 218.604C432.114 219.447 430.765 218.098 430.259 213.379C428.994 199.095 427.444 184.81 425.895 170.526C425.378 165.765 424.862 161.003 424.356 156.242C424.3 155.766 424.276 155.276 424.253 154.789C424.136 152.341 424.021 149.95 419.802 149.669C415.079 149.5 413.899 151.691 412.887 155.737C409.239 170.783 405.54 185.778 401.846 200.75L401.844 200.76L401.841 200.771L401.83 200.816C398.868 212.823 395.909 224.815 392.984 236.807C391.804 241.864 390.286 244.897 384.045 244.392C375.275 243.718 366.336 243.886 357.565 244.392C352.505 244.56 350.819 242.875 350.313 237.818C348.135 216.753 345.784 195.688 343.429 174.589L343.428 174.587L343.427 174.575L343.426 174.566L343.425 174.558C341.768 159.709 340.108 144.843 338.506 129.949C338 125.567 336.82 124.555 332.772 125.567C327.211 126.874 321.58 128.041 315.97 129.203C312.901 129.839 309.839 130.473 306.798 131.129C304.099 131.635 301.906 132.309 302.412 135.848C303.424 144.443 304.267 153.037 305.111 161.632L305.111 161.635C305.433 165.339 307.603 165.197 310.149 165.03L310.508 165.007C313.713 164.838 314.219 162.984 313.882 160.287C313.629 158.18 313.46 156.073 313.291 153.967C313.123 151.86 312.954 149.753 312.701 147.646C312.364 143.938 314.725 143.095 317.423 143.601C318.998 143.826 320.647 143.508 322.296 143.189C325.594 142.552 328.893 141.916 331.591 145.624V146.298C332.013 151.358 332.435 156.376 332.857 161.394C333.278 166.404 333.7 171.415 334.121 176.468C334.29 179.164 333.446 180.513 330.41 181.018C318.604 182.872 307.135 184.726 295.497 187.086C289.931 188.097 287.739 186.749 287.233 180.681C286.142 166.75 284.615 152.907 283.091 139.087C282.495 133.679 281.899 128.275 281.33 122.87L281.31 122.499C281.153 119.545 280.976 116.197 276.607 117.814C275.6 118.179 274.37 118.26 273.129 118.341C269.794 118.559 266.379 118.783 266.993 124.555C267.778 132.341 268.581 140.127 269.385 147.912L269.392 147.982C271.004 163.601 272.615 179.22 274.077 194.839C274.583 199.896 276.776 200.57 281.161 199.727C289.857 198.015 298.553 196.612 307.329 195.196L307.345 195.194L307.385 195.187L307.421 195.181C309.849 194.79 312.283 194.397 314.725 193.996C328.37 191.668 328.389 191.802 330.168 204.918L330.242 205.458C330.579 209.334 329.904 211.02 325.688 211.694C305.111 214.896 284.534 218.098 263.957 221.806C258.897 222.649 257.548 221.638 257.042 216.582C255.777 202.298 254.228 188.014 252.678 173.73C252.162 168.969 251.645 164.207 251.139 159.445C251.089 158.995 251.061 158.537 251.034 158.084C250.876 155.481 250.726 153.015 246.416 152.871C241.694 152.534 240.513 154.725 239.501 158.77C235.273 176.539 230.905 194.237 226.532 211.956L226.526 211.98C224.099 221.818 221.669 231.661 219.262 241.526C218.25 245.572 216.9 247.594 212.178 247.426C202.395 246.92 192.444 247.088 182.493 247.257C179.12 247.257 177.602 246.246 177.265 242.706C175.747 227.874 174.06 213.042 172.373 198.21C171.619 191.478 170.847 184.728 170.075 177.973C168.43 163.587 166.782 149.173 165.29 134.837C164.784 130.455 163.266 129.781 159.218 130.792C150.616 132.814 142.014 134.668 133.244 136.185C129.702 136.859 128.69 138.376 129.027 141.747C129.702 146.916 130.226 152.085 130.751 157.254C131.014 159.838 131.276 162.422 131.557 165.007C131.608 165.442 131.636 165.889 131.664 166.332L131.664 166.333C131.818 168.804 131.964 171.14 136.111 170.569C140.665 169.894 140.496 167.029 140.159 163.658C139.958 161.516 139.758 159.698 139.588 158.151C139.054 153.306 138.814 151.13 139.789 150.042C140.584 149.156 142.187 148.993 145.097 148.697C147.07 148.497 149.645 148.236 152.977 147.646H153.652C156.688 147.141 157.7 148.657 157.868 151.523C158.543 161.13 159.386 170.906 160.23 180.513C160.567 183.884 159.555 185.401 156.013 185.906C150.447 186.833 144.839 187.844 139.231 188.856L139.178 188.865L139.172 188.866C133.584 189.874 127.996 190.882 122.449 191.805C114.708 193.151 114.691 192.986 113.853 184.78L113.847 184.726C112.632 172.36 111.272 160.066 109.909 147.75L109.909 147.749L109.908 147.743C109.191 141.261 108.473 134.772 107.776 128.263C107.75 127.858 107.748 127.414 107.745 126.958V126.958C107.731 124.385 107.714 121.438 103.559 122.87C102.578 123.227 101.349 123.324 100.088 123.424L100.087 123.424C96.5782 123.701 92.8189 123.999 93.4392 129.949C94.311 138.196 95.2027 146.423 96.0938 154.644L96.0943 154.647C97.7891 170.283 99.4815 185.896 101.029 201.581C101.366 205.12 102.716 205.626 105.92 205.12C111.823 204.109 117.769 203.182 123.714 202.255C129.66 201.328 135.605 200.401 141.508 199.39L142.072 199.294L142.072 199.294C148.632 198.173 151.913 197.613 153.776 198.982C155.639 200.352 156.082 203.655 156.969 210.262L156.969 210.263L157.025 210.682C157.7 215.57 156.182 216.919 151.628 217.593C131.388 220.627 111.149 223.829 91.0779 227.368C85.512 228.211 84.3314 226.526 83.8254 221.469C82.1388 202.93 80.1149 184.559 78.091 166.187L78.0909 166.186C78.0272 165.613 78.0236 164.998 78.02 164.374C78.0045 161.693 77.9881 158.844 73.1997 158.433C67.8658 158.12 67.2013 161.16 66.4559 164.57L66.4542 164.577C66.3988 164.831 66.3428 165.087 66.2845 165.344C59.3693 192.648 52.4541 219.952 45.8763 247.426C44.8643 251.639 43.3463 253.156 38.7924 252.988C33.0143 252.627 27.1501 252.695 21.2614 252.764H21.2597H21.2579C18.8971 252.791 16.5324 252.819 14.1677 252.819C9.57396 252.819 7.25506 252.819 5.92063 251.673C4.56034 250.504 4.22304 248.145 3.54192 243.38C3.20459 241.021 3.01718 238.661 2.82978 236.301ZM46.2136 148.321H39.9731C29.1942 148.486 29.1761 148.326 28.0564 138.388L27.998 137.871C27.5075 133.739 26.9587 129.636 26.4122 125.551L26.4116 125.546C25.643 119.8 24.8788 114.087 24.2874 108.375C23.9501 105.004 23.2755 103.656 19.3962 104.499C17.9858 104.767 16.7376 104.99 15.6345 105.188L15.6321 105.188C11.1559 105.989 9.07061 106.362 8.24163 107.586C7.51865 108.654 7.75124 110.369 8.18664 113.579C8.36451 114.89 8.57622 116.451 8.77047 118.319C12.6497 154.219 16.6976 190.288 20.7455 226.189C20.813 226.762 20.813 227.402 20.813 228.062C20.813 230.699 20.813 233.638 25.1308 233.773C27.8294 233.942 29.6847 233.436 30.528 230.065C36.7685 204.278 43.009 178.49 49.5869 152.871C50.4302 149.332 49.5869 148.152 46.2136 148.321ZM388.262 139.556H385.732C375.629 139.556 375.609 139.393 374.494 129.971L374.431 129.443C373.971 125.568 373.46 121.693 372.947 117.808L372.947 117.806C372.144 111.722 371.338 105.614 370.721 99.4421C370.384 95.397 368.528 94.7229 364.818 95.5657L364.338 95.666L364.335 95.6665C358.956 96.7885 356.256 97.3516 355.065 99.0032C353.865 100.667 354.196 103.435 354.86 108.991L354.867 109.049C356.917 126.672 358.888 144.294 360.857 161.897L360.858 161.909L360.858 161.914L360.859 161.919C362.938 180.506 365.014 199.072 367.179 217.593C367.251 218.243 367.231 218.939 367.21 219.636C367.134 222.19 367.059 224.744 371.564 225.009C376.127 225.147 376.609 222.453 377.1 219.713C377.207 219.111 377.315 218.507 377.467 217.93C383.367 194.683 389.099 171.436 394.83 148.189L394.84 148.152C395.94 143.839 396.488 141.69 395.653 140.619C394.824 139.556 392.632 139.556 388.262 139.556ZM215.045 142.927H212.515C212.186 142.927 211.851 142.922 211.513 142.914C211.217 142.907 210.92 142.898 210.622 142.889C209.348 142.852 208.074 142.815 206.949 142.927C203.745 143.264 202.564 141.747 202.227 138.713C201.733 134.931 201.204 131.131 200.674 127.325C199.573 119.428 198.469 111.503 197.673 103.656C197.167 98.9365 195.649 98.2622 191.264 99.105L190.9 99.1843C185.78 100.303 183.218 100.863 182.094 102.444C180.967 104.03 181.285 106.641 181.92 111.87V111.87L181.987 112.42C184.114 131.464 186.195 150.554 188.278 169.667L188.282 169.701L188.282 169.702C190.162 186.946 192.043 204.208 193.962 221.469C194.028 222.03 194.036 222.616 194.044 223.2C194.076 225.603 194.108 227.973 198.179 228.38C202.682 228.69 203.325 226 204.057 222.941L204.06 222.93C204.122 222.67 204.185 222.407 204.251 222.144C209.184 202.563 214 182.865 218.797 163.246L220.082 157.989L221.623 151.691C223.816 142.927 223.647 142.927 215.045 142.927ZM1080.98 139.593C1080.35 139.574 1079.72 139.556 1079.1 139.556C1078.26 139.556 1077.42 139.514 1076.57 139.472C1075.73 139.429 1074.89 139.387 1074.04 139.387C1069.83 139.893 1068.31 137.871 1067.8 133.657C1067.23 128.43 1066.58 123.202 1065.93 117.957L1065.93 117.946C1065.23 112.369 1064.53 106.771 1063.92 101.128C1063.42 96.0713 1061.73 94.3857 1056.34 95.7341L1055.33 95.9663C1046.88 97.9138 1046.76 97.9417 1047.73 107.195C1049.81 126.579 1051.98 145.919 1054.14 165.238L1054.14 165.242L1054.14 165.245L1054.15 165.323C1056.2 183.602 1058.25 201.862 1060.21 220.121C1060.55 223.155 1061.4 224.672 1064.77 224.84C1067.97 225.009 1069.32 223.66 1070 220.795C1071.01 216.677 1072.02 212.555 1073.03 208.429L1073.07 208.268C1078.29 186.951 1083.53 165.554 1088.89 144.275C1089.9 140.567 1088.38 139.219 1084.84 139.556C1083.6 139.669 1082.28 139.631 1080.98 139.593ZM734.527 140.567H731.997C731.412 140.567 730.862 140.569 730.343 140.57H730.341C725.502 140.58 723.422 140.585 722.463 139.55C721.74 138.77 721.654 137.399 721.504 134.996C721.437 133.925 721.357 132.649 721.202 131.129L721.202 131.126C719.853 121.183 718.503 111.24 717.492 101.128C716.986 96.2397 714.962 95.5657 710.914 96.5769C708.705 97.1216 706.935 97.4859 705.525 97.7759L705.52 97.7771C702.706 98.356 701.33 98.6392 700.762 99.4729C700.219 100.271 700.417 101.574 700.805 104.125C701.002 105.415 701.247 107.024 701.469 109.049C703.814 131.37 706.345 153.752 708.875 176.121L708.88 176.172C710.532 190.778 712.183 205.378 713.781 219.952C713.82 220.299 713.849 220.643 713.878 220.981C714.105 223.605 714.301 225.871 718.335 226.02C722.497 226.187 723.044 223.725 723.706 220.744L723.732 220.627C726.667 208.729 729.601 196.873 732.536 185.016L732.587 184.811C735.539 172.886 738.49 160.961 741.442 148.995C742.444 144.821 742.95 142.715 742.12 141.651C741.273 140.567 739.039 140.567 734.527 140.567ZM560.828 138.919C560.192 138.9 559.561 138.882 558.949 138.882C553.903 138.882 551.415 138.882 550.001 137.65C548.624 136.451 548.264 134.086 547.553 129.42L547.553 129.419L547.479 128.938C547.02 125.067 546.509 121.197 545.997 117.317L545.995 117.301L545.994 117.294L545.993 117.284C545.191 111.205 544.386 105.102 543.769 98.9365C543.263 95.2285 542.251 93.8801 538.203 94.5542L537.428 94.6958C531.957 95.6941 529.246 96.1887 528.059 97.8035C526.893 99.3889 527.196 102.054 527.797 107.336V107.337L527.915 108.375C531.603 139.142 534.986 170.06 538.354 200.842L538.878 205.626C539.039 207.076 539.217 208.543 539.396 210.017C539.779 213.167 540.166 216.346 540.396 219.447C540.564 221.975 541.07 223.998 544.275 223.998C547.311 223.998 549.335 223.492 550.178 219.952C554.226 203.21 558.424 186.468 562.622 169.726C564.721 161.355 566.82 152.984 568.9 144.613C569.912 140.567 569.237 138.376 564.683 138.882C563.44 138.995 562.121 138.957 560.828 138.919ZM906.913 138.92C906.407 138.901 905.894 138.882 905.382 138.882C900.45 138.882 897.962 138.882 896.543 137.65C895.099 136.398 894.762 133.87 894.082 128.77V128.769L893.824 126.872C892.562 117.58 891.318 108.427 890.371 99.2737C889.865 95.0601 888.516 93.543 883.962 94.5542L883.421 94.6638C873.162 96.7429 873.022 96.7715 874.348 108.038L875.523 118.372L875.524 118.381L875.526 118.39C879.348 151.992 883.158 185.482 886.829 219.11C886.853 219.288 886.875 219.464 886.897 219.637C887.183 221.914 887.404 223.672 890.54 223.829C893.744 223.998 895.6 223.155 896.443 219.784C900.997 200.401 905.888 181.018 910.779 161.635C911.245 159.831 911.671 158.006 912.098 156.175C912.908 152.705 913.723 149.213 914.827 145.792C916.514 140.567 915.839 138.039 909.767 138.882C908.875 138.993 907.908 138.957 906.917 138.92L906.913 138.92ZM1253.53 142.964C1252.89 142.945 1252.26 142.927 1251.65 142.927C1242.03 142.927 1241.86 142.927 1240.68 133.32C1240.29 130.123 1239.88 126.927 1239.47 123.73L1239.47 123.714C1238.64 117.309 1237.82 110.904 1237.14 104.499C1236.64 99.6106 1235.12 97.9253 1229.89 99.105C1229.53 99.1921 1229.18 99.2756 1228.85 99.356C1220.1 101.453 1219.98 101.482 1220.95 110.735C1224.99 148.125 1229.21 185.515 1233.42 222.905L1233.43 222.986C1233.6 225.852 1233.77 227.874 1237.48 228.043C1240.85 228.043 1242.37 226.863 1243.21 223.66C1249.29 198.547 1255.36 173.434 1261.77 148.321C1262.78 143.938 1261.77 142.421 1257.38 142.927C1256.14 143.04 1254.82 143.001 1253.53 142.964Z" fill="#0A332F"/>
</svg>
