<svg width="235" height="236" viewBox="0 0 235 236" fill="none" xmlns="http://www.w3.org/2000/svg">
<path d="M190.875 131.151C184.119 126.983 177.076 123.39 171.04 118.216C167.447 118.359 164.716 115.772 161.697 114.479C151.349 110.023 140.425 107.292 129.358 105.136C82.789 100.393 44.9878 119.078 11.4985 149.693C38.3762 146.674 63.3854 152.998 87.3884 164.209C88.1071 164.497 88.8257 164.641 89.4006 164.928C114.697 178.726 134.101 199.28 152.642 220.983C156.523 225.583 161.266 229.607 163.71 235.356C187.138 235.356 210.566 235.356 233.994 235.356C233.994 215.234 234.138 195.112 234.138 174.989C232.269 172.402 230.401 169.671 228.532 167.084C218.04 152.998 204.529 142.075 190.875 131.151Z" fill="#45BB9B"/>
<path d="M190.875 131.151C204.529 142.075 218.04 152.998 228.532 167.084C230.544 169.671 232.269 172.258 234.138 174.989C234.569 173.839 235 172.833 235 171.827C235 127.558 235 83.4327 234.856 39.1636C234.138 32.8394 230.113 29.5336 224.939 26.3715C210.853 17.3165 195.618 11.136 179.52 6.10546C167.878 2.51219 155.948 1.64982 143.731 0.49997C148.043 4.8119 152.211 9.12383 156.092 13.5795C167.015 25.5092 174.058 39.7385 180.382 54.2553C190.156 76.5336 190.3 100.249 189.437 123.965C189.581 126.696 190.3 128.852 190.875 131.151Z" fill="#185446"/>
<path d="M163.853 235.356C161.41 229.607 156.667 225.583 152.786 220.983C134.245 199.424 114.841 178.87 89.5443 164.928C88.9694 164.641 88.2508 164.497 87.5321 164.209C85.0887 167.084 81.3517 166.797 78.1896 167.803C49.4434 176.139 27.0214 192.956 10.3486 217.677C6.46788 223.283 2.29969 228.745 -5.01022e-06 235.213C4.02446 235.356 8.19266 235.5 12.2171 235.5C61.5168 235.5 110.673 235.5 159.972 235.5C161.266 235.5 162.56 235.356 163.853 235.356Z" fill="#2C7E65"/>
<path d="M129.502 105.28C140.569 107.436 151.349 110.167 161.841 114.622C164.859 115.916 167.59 118.359 171.184 118.359C172.19 103.268 171.327 88.3196 171.615 73.2279C171.758 68.341 171.471 63.5979 171.615 58.7111C171.758 55.4052 170.321 54.2554 167.159 54.3991C162.272 54.6866 156.236 52.8181 153.073 55.1178C149.768 57.5612 152.355 64.0291 152.211 68.6285C151.924 76.5337 152.211 84.4389 152.067 92.3441C152.067 93.9251 152.93 96.0811 151.205 96.7997C149.336 97.5184 148.618 95.3624 147.612 94.2126C140.138 85.7325 132.52 77.3961 125.333 68.7722C123.177 66.1851 121.596 65.8976 119.297 68.4848C118.003 69.9221 116.566 71.3594 115.128 72.6529C107.367 79.4083 107.367 79.2646 114.266 87.026C119.297 92.919 125.333 98.2371 129.502 105.28Z" fill="#2C7E65"/>
</svg>
