<svg width="1366" height="253" viewBox="0 0 1366 253" fill="none" xmlns="http://www.w3.org/2000/svg">
<path d="M2.52994 20.238C2.86727 16.6986 3.03593 13.1591 3.54192 9.61964C4.89122 0.181063 4.89122 0.181063 14.1677 0.181063C22.4322 0.181063 30.6966 0.518155 38.7924 0.0125173C43.3463 -0.156029 44.8643 1.36088 45.8763 5.57453C52.4541 33.0475 59.3693 60.352 66.2845 87.6564C67.1278 91.3644 67.4651 94.9039 73.1997 94.5668C79.1029 94.0612 77.7536 89.8475 78.0909 86.8137C80.1148 68.4422 82.1388 50.0707 83.8254 31.5306C84.3314 26.4742 85.512 24.7888 91.0779 25.6315C111.149 29.171 131.388 32.3733 151.628 35.4072C156.182 36.0814 157.7 37.4297 157.025 42.3176C155.17 56.1383 155.338 55.9698 141.508 53.6101C129.702 51.5876 117.727 49.9021 105.92 47.8796C102.716 47.3739 101.366 47.8796 101.029 51.419C98.6677 75.3526 95.9691 99.1175 93.4392 123.051C92.5959 131.141 99.8484 128.782 103.559 130.13C108.45 131.815 107.607 127.433 107.776 124.737C109.799 105.859 111.992 87.1508 113.847 68.2736C114.691 60.0149 114.691 59.8463 122.449 61.1947C133.581 63.0487 144.881 65.2398 156.013 67.0938C159.555 67.5994 160.567 69.1164 160.23 72.4873C159.386 82.0944 158.543 91.8701 157.868 101.477C157.7 104.342 156.688 105.859 153.652 105.354C153.483 105.354 153.146 105.354 152.977 105.354C136.786 102.488 138.472 107.376 140.159 89.3419C140.496 85.971 140.665 83.1057 136.111 82.4315C131.22 81.7573 131.894 85.1282 131.557 87.9935C130.714 95.7466 130.039 103.5 129.027 111.253C128.69 114.624 129.702 116.141 133.244 116.815C142.014 118.332 150.616 120.186 159.218 122.208C163.266 123.22 164.784 122.545 165.29 118.163C167.482 97.095 170.012 75.8582 172.373 54.79C174.06 39.9579 175.747 25.1259 177.265 10.2938C177.602 6.75436 179.12 5.74308 182.493 5.74308C192.444 5.91163 202.395 6.08017 212.178 5.57453C216.9 5.40599 218.25 7.42854 219.262 11.4736C226.008 39.1152 232.923 66.5882 239.501 94.2297C240.513 98.2748 241.694 100.466 246.416 100.129C251.476 99.9603 250.802 96.5893 251.139 93.5555C253.163 74.5098 255.356 55.4641 257.042 36.4184C257.548 31.3621 258.897 30.3508 263.957 31.1935C284.534 34.9015 305.111 38.1039 325.688 41.3063C329.904 41.9805 330.579 43.6659 330.242 47.5425C328.386 61.1947 328.555 61.3632 314.725 59.0036C303.424 57.1496 292.293 55.4641 281.161 53.273C276.776 52.4303 274.583 53.1045 274.077 58.1609C271.884 81.5888 269.355 105.017 266.993 128.445C266.15 136.366 272.896 133.838 276.607 135.186C281.161 136.872 281.161 133.164 281.33 130.13C283.354 110.916 285.715 91.7015 287.233 72.3187C287.739 66.2511 289.931 64.9027 295.497 65.914C307.135 68.2736 318.604 70.1276 330.41 71.9816C333.446 72.4873 334.29 73.8356 334.121 76.5324C333.278 86.6451 332.434 96.5893 331.591 106.702C331.591 106.871 331.591 107.208 331.591 107.376C327.543 112.938 322.146 108.725 317.423 109.399C314.725 109.904 312.364 109.062 312.701 105.354C313.207 101.14 313.376 96.9264 313.882 92.7128C314.219 90.0161 313.713 88.1621 310.508 87.9935C307.81 87.825 305.448 87.4879 305.111 91.3644C304.268 99.9603 303.424 108.556 302.412 117.152C301.906 120.691 304.099 121.366 306.798 121.871C315.399 123.725 324.17 125.411 332.772 127.433C336.82 128.445 338 127.433 338.506 123.051C342.386 86.9822 346.602 51.0819 350.313 15.1817C350.819 10.1253 352.505 8.43981 357.565 8.60836C366.336 9.114 375.275 9.28254 384.045 8.60836C390.286 8.10272 391.804 11.1365 392.984 16.1929C399.562 43.1603 406.309 70.1276 412.887 97.2635C413.899 101.309 415.079 103.5 419.802 103.331C424.862 102.994 424.018 99.6232 424.356 96.7579C426.38 77.7122 428.572 58.6665 430.259 39.6208C430.765 34.9015 432.114 33.5532 436.837 34.3959C457.245 37.9354 477.484 41.3063 497.893 44.3401C502.784 45.0143 504.133 46.6997 503.29 51.7561C501.097 64.3971 501.266 64.3971 488.448 62.206C476.978 60.352 465.509 58.6665 454.209 56.644C449.655 55.8012 447.631 57.1496 447.125 61.8689C444.933 84.6226 442.571 107.545 440.21 130.299C439.704 135.355 448.137 140.917 452.691 138.726C454.715 137.883 454.209 135.861 454.378 134.344C456.57 114.455 458.932 94.5668 460.618 74.6784C461.124 69.1164 462.811 68.1051 468.039 69.1164C479.508 71.476 491.146 73.4986 502.784 75.3526C506.157 75.8582 507.506 77.038 507.169 80.5775C506.157 90.1846 505.482 99.7917 504.808 109.567C504.639 112.77 503.29 113.612 500.085 113.612C485.243 113.444 484.568 112.938 486.424 97.4321C486.93 93.2184 485.918 91.533 481.87 91.1959C479.677 90.8588 478.328 91.3644 477.99 94.0612C477.147 103.331 475.966 112.433 474.954 121.703C474.617 124.231 476.304 124.905 478.328 125.242C487.604 127.096 496.881 129.119 506.157 131.141C509.53 131.984 510.542 130.636 510.88 127.433C514.759 91.8701 518.638 56.3069 522.517 20.7437C523.698 9.95673 523.529 9.95673 534.155 9.95673C542.082 9.95673 550.178 10.2938 558.105 9.78818C562.49 9.61964 564.346 11.1365 565.358 15.5187C571.936 43.1603 579.019 70.6333 585.597 98.2748C586.778 102.994 588.971 104.342 593.356 104.005C596.054 103.837 596.729 102.657 597.066 100.129C599.09 80.4089 601.283 60.8576 603.138 41.1377C603.644 35.9128 605.331 34.733 610.222 35.5757C631.136 39.1152 652.219 42.4861 673.133 45.857C673.977 46.0256 675.326 46.0256 675.495 46.5312C678.024 51.9247 674.989 56.981 674.314 62.3745C673.808 66.4196 670.603 64.9027 668.242 64.5656C654.749 62.5431 641.087 60.6891 627.763 57.9923C622.028 56.8125 620.51 58.3294 620.005 63.8914C617.812 86.9822 615.451 109.904 612.752 132.995C612.415 136.535 613.258 138.052 616.631 138.557C618.993 138.894 621.185 139.4 623.378 140.074C626.245 140.748 626.92 139.737 627.257 137.04C629.281 116.478 631.642 96.0837 633.498 75.5211C634.004 70.6333 635.184 69.4534 640.075 70.4647C651.544 72.8244 663.351 74.6784 674.989 76.5324C678.868 77.2066 680.554 78.5549 680.048 82.6C679.036 92.0386 678.362 101.477 677.856 110.916C677.687 114.287 676.507 115.635 673.302 115.129C673.133 115.129 672.965 115.129 672.627 115.129C658.46 114.961 658.46 114.961 659.134 101.14C659.303 99.2861 659.472 97.2635 659.134 95.4095C658.628 92.5442 656.098 93.0499 654.074 92.7128C651.882 92.3757 651.207 93.7241 651.038 95.7466C650.026 104.68 649.015 113.781 647.834 122.714C647.497 125.242 648.846 126.085 650.87 126.591C660.315 128.613 669.929 130.299 679.374 132.49C684.434 133.669 683.253 129.793 683.59 127.602C685.614 110.41 687.47 93.387 689.325 76.1953C691.518 55.9698 694.047 35.5757 695.903 15.3502C696.409 9.45109 698.939 8.10272 704.167 8.43981C712.769 8.77691 721.539 8.94545 730.141 8.43981C735.201 8.27127 737.394 9.61964 738.743 14.8446C745.152 42.3175 752.236 69.622 758.814 97.095C759.826 101.14 761.175 103.163 765.898 102.994C770.958 102.826 770.114 99.2861 770.452 96.4208C772.476 77.038 774.668 57.4867 776.524 37.9354C776.861 34.2273 778.21 33.2161 781.752 33.8903C803.004 37.4297 824.087 40.9692 845.338 44.3401C849.049 45.0143 850.229 46.1941 849.723 50.0707C847.531 64.06 847.531 64.06 833.363 61.7003C822.569 59.8463 811.774 58.498 800.98 56.4754C795.751 55.4641 793.896 57.3181 793.39 62.3745C791.197 85.6339 788.836 108.893 786.137 132.153C785.631 136.872 788.33 136.703 791.366 137.377C800.136 139.231 800.136 139.231 801.148 130.636C803.172 111.758 805.365 93.0499 807.052 74.1727C807.558 68.9478 809.582 68.2736 813.967 69.1164C825.773 71.3075 837.58 73.33 849.386 75.3526C852.928 75.8582 853.771 77.7122 853.434 80.9146C852.591 89.8475 851.747 98.949 851.241 108.05C851.073 112.433 849.555 114.287 845.169 113.444C845.001 113.444 844.832 113.444 844.495 113.444C831.845 112.938 832.014 112.938 832.351 100.297C832.52 97.095 835.05 92.3757 828.809 91.3644C826.279 90.8588 824.761 91.0273 824.424 93.8926C823.412 102.826 822.4 111.927 821.388 120.86C821.051 123.557 822.4 124.568 824.93 125.074C834.206 126.928 843.483 128.95 852.759 130.973C856.132 131.647 857.144 130.467 857.482 127.096C861.192 91.8701 865.24 56.8125 868.951 21.5864C869.119 20.4066 869.288 19.0582 869.288 17.8784C869.457 12.822 871.143 10.1253 877.215 10.6309C886.154 11.3051 895.431 11.1366 904.37 10.6309C909.092 10.4624 910.779 12.1478 911.96 16.53C918.538 44.003 925.453 71.3075 932.031 98.6119C933.043 103.163 934.898 105.017 939.62 104.68C944.849 104.342 943.5 100.634 943.837 97.7692C945.861 78.7235 948.054 59.6778 949.909 40.6321C950.246 36.9241 951.427 35.2386 955.306 35.9128C976.895 39.4523 998.484 42.9917 1020.07 46.5312C1020.75 46.6997 1021.59 46.6997 1021.76 47.0368C1024.12 52.4303 1021.42 57.4867 1020.75 62.7116C1020.41 66.2511 1017.71 65.5769 1015.52 65.2398C1001.35 63.0487 987.183 61.0261 973.184 58.3294C967.787 57.3181 966.944 59.1721 966.438 64.06C964.414 86.4766 962.39 108.893 959.523 131.31C958.679 137.546 960.703 138.726 965.932 139.906C971.666 141.085 973.859 140.411 974.365 133.838C975.883 114.118 978.413 94.3983 980.437 74.8469C980.774 71.1389 982.292 70.2962 985.834 70.9704C997.809 73.1615 1009.78 75.3526 1021.93 77.3751C1025.64 78.0493 1027.16 79.2291 1026.65 83.6113C1025.47 92.5442 1025.13 101.646 1024.63 110.747C1024.46 114.624 1023.11 116.309 1018.72 115.804C1005.06 114.624 1005.06 114.792 1005.74 100.466C1005.9 98.4434 1006.75 96.0837 1005.06 94.3982C1003.71 93.0499 1001.52 93.2184 999.664 93.387C997.303 93.5555 997.64 95.7466 997.472 97.2635C996.46 105.859 995.616 114.455 994.605 123.051C994.267 126.253 996.123 126.928 998.652 127.433C1007.09 129.119 1015.69 130.636 1023.95 132.827C1028.34 134.007 1029.86 132.995 1030.36 128.445C1032.05 111.758 1034.07 94.9039 1035.93 78.2178C1038.29 57.4867 1040.48 36.7555 1042.5 16.0244C1043.01 11.3051 1044.87 9.61964 1049.76 9.78818C1059.03 10.1253 1068.31 10.1253 1077.59 9.78818C1081.97 9.61964 1083.83 11.1365 1084.84 15.3502C1091.59 42.9917 1098.5 70.4647 1105.25 98.1063C1106.09 101.14 1106.26 104.174 1110.81 104.342C1115.2 104.511 1116.55 102.994 1117.05 98.6119C1118.91 78.892 1121.27 59.3407 1123.13 39.6208C1123.46 35.5757 1124.98 34.733 1128.69 35.2386C1149.94 38.7781 1171.03 42.149 1192.28 45.5199C1195.82 46.0256 1196.66 47.5425 1196.16 51.0819C1194.13 64.9027 1194.3 65.0713 1180.98 63.0487C1169.17 61.3632 1157.2 59.5092 1145.39 57.3181C1141.34 56.644 1140.33 57.8238 1139.99 61.7003C1137.63 85.2968 1135.27 109.062 1132.57 132.658C1131.9 138.052 1135.44 137.883 1138.47 138.557C1146.74 140.411 1146.74 140.411 1147.58 132.153C1149.61 112.433 1151.8 92.8813 1153.65 73.1615C1153.99 69.9591 1155 69.2849 1158.04 69.7905C1170.69 72.1502 1183.34 74.3413 1195.99 76.5324C1199.02 77.038 1200.2 78.0493 1199.87 81.4202C1198.86 90.8588 1198.18 100.297 1197.84 109.736C1197.67 113.612 1196.33 114.792 1192.61 114.624C1178.45 114.118 1178.45 114.287 1179.12 100.297C1179.29 98.4434 1179.46 96.4208 1179.12 94.5668C1178.45 92.0386 1175.75 92.3757 1173.89 92.0386C1171.53 91.533 1171.19 93.5555 1171.03 95.241C1170.01 104.005 1169 112.77 1167.99 121.534C1167.65 124.062 1168.66 125.411 1171.19 125.916C1180.47 127.77 1189.75 129.793 1199.02 131.984C1202.23 132.658 1202.9 131.31 1203.24 128.445C1206.11 101.814 1209.14 75.3526 1212.01 48.7223C1213.36 36.587 1214.71 24.4517 1215.89 12.3164C1216.23 8.10272 1217.58 5.91163 1222.47 6.24872C1231.91 6.58581 1241.36 6.58581 1250.97 6.24872C1255.36 6.08017 1257.38 7.76563 1258.39 11.9793C1264.97 39.1152 1271.55 66.4196 1278.3 93.5555C1279.14 96.7579 1278.63 100.972 1284.2 100.803C1288.42 100.803 1289.93 99.4546 1290.44 95.0724C1292.29 75.3526 1294.49 55.8012 1296.34 36.0814C1296.68 32.2048 1297.69 31.1935 1301.74 31.8677C1323.16 35.5757 1344.58 38.9466 1366 42.3176C1366 48.7223 1366 55.127 1366 61.5318C1350.99 59.1721 1336.15 56.8125 1321.14 54.1158C1315.74 53.1045 1313.38 53.9472 1312.87 60.1834C1311.18 81.5888 1308.65 102.826 1306.29 124.231C1305.28 133.838 1304.94 133.669 1314.56 135.861C1318.61 136.703 1320.12 136.198 1320.63 131.647C1322.49 111.59 1325.01 91.533 1326.87 71.476C1327.38 66.2511 1329.57 65.7454 1333.79 66.5882C1344.58 68.6107 1355.37 70.4647 1366 72.3187C1366 85.1282 1366 97.9377 1366 110.747C1362.8 110.579 1359.76 110.41 1356.55 110.242C1352.84 110.073 1350.82 108.893 1351.66 104.342C1352.51 100.466 1352 96.4208 1352.51 92.3757C1353.01 88.4991 1350.31 89.1733 1348.12 88.6677C1345.76 88.162 1343.91 88.162 1343.74 91.1959C1342.89 99.9603 1342.05 108.725 1340.87 117.489C1340.53 120.691 1341.88 121.871 1344.92 122.377C1352 123.725 1358.92 125.242 1365.83 126.591C1365.83 165.693 1366 204.964 1366 244.067C1366 253 1366 253 1357.06 253C964.751 253 572.442 253 180.132 253C174.06 253 167.988 253 161.748 252.831C159.386 250.977 156.519 251.652 153.82 251.652C102.884 251.652 51.9481 251.652 1.18064 251.652C1.18064 180.188 1.18064 108.556 1.18064 37.0926C1.18064 34.9015 1.68663 32.3733 0 30.5193C0 28.8339 0 27.1484 0 25.463C3.54192 24.7888 2.52994 22.2606 2.52994 20.238ZM39.9731 104.68C41.997 104.68 44.1897 104.68 46.2136 104.68C49.5869 104.848 50.4302 103.668 49.5869 100.129C43.009 74.5098 36.7685 48.7223 30.528 22.9348C29.6847 19.5638 27.8294 19.0582 25.1308 19.2268C19.7335 19.3953 21.0829 23.946 20.7455 26.8113C16.6976 62.7116 12.6497 98.7804 8.77047 134.681C7.42116 147.659 5.22855 145.805 19.3962 148.501C23.2755 149.344 23.9501 147.996 24.2874 144.625C25.2994 134.849 26.8174 125.074 27.998 115.129C29.1787 104.68 29.01 104.511 39.9731 104.68ZM385.732 113.444C386.575 113.444 387.418 113.444 388.262 113.444C397.032 113.444 397.032 113.444 394.84 104.848C389.105 81.5888 383.371 58.3294 377.467 35.0701C376.624 31.8677 377.13 27.8226 371.564 27.9911C365.83 28.3282 367.516 32.3733 367.179 35.4072C362.962 71.476 359.083 107.713 354.867 143.951C353.517 155.243 353.517 155.075 364.818 157.434C368.528 158.277 370.384 157.603 370.721 153.558C371.733 143.445 373.251 133.501 374.431 123.557C375.612 113.612 375.443 113.444 385.732 113.444ZM212.515 110.073C213.358 110.073 214.202 110.073 215.045 110.073C223.647 110.073 223.816 110.073 221.623 101.309C215.888 77.8807 210.154 54.2843 204.251 30.8564C203.407 27.4855 203.07 24.2831 198.179 24.6202C193.119 25.1259 194.3 28.6653 193.962 31.5306C189.914 67.9365 186.035 104.342 181.987 140.58C180.638 151.704 180.469 151.535 191.264 153.895C195.649 154.738 197.167 154.064 197.673 149.344C198.853 137.715 200.709 125.916 202.227 114.287C202.564 111.253 203.745 109.736 206.949 110.073C208.636 110.242 210.66 110.073 212.515 110.073ZM1079.1 113.444C1079.1 113.612 1079.1 113.612 1079.1 113.444C1080.96 113.444 1082.98 113.275 1084.84 113.444C1088.38 113.781 1089.9 112.433 1088.89 108.725C1082.48 83.2742 1076.24 57.6552 1070 32.2048C1069.32 29.3395 1067.97 27.9911 1064.77 28.1597C1061.4 28.3282 1060.55 29.8452 1060.21 32.879C1056.17 70.4647 1051.78 108.05 1047.73 145.805C1046.72 155.412 1046.89 155.075 1056.34 157.266C1061.73 158.614 1063.42 156.929 1063.92 151.872C1065.11 140.917 1066.62 130.13 1067.8 119.343C1068.31 115.129 1069.83 113.107 1074.04 113.612C1075.73 113.612 1077.42 113.444 1079.1 113.444ZM731.997 112.433C732.84 112.433 733.683 112.433 734.527 112.433C743.466 112.433 743.466 112.433 741.442 104.005C735.539 80.0718 729.635 56.3069 723.732 32.3733C723.057 29.3395 722.551 26.8113 718.335 26.9799C713.781 27.1484 714.118 30.0137 713.781 33.0475C709.733 69.9591 705.348 107.039 701.469 143.951C700.119 156.255 697.927 153.221 710.914 156.423C714.962 157.434 716.986 156.76 717.492 151.872C718.504 141.76 719.853 131.815 721.202 121.871C722.214 111.927 720.022 112.433 731.997 112.433ZM558.949 114.118C560.804 114.118 562.828 113.95 564.683 114.118C569.237 114.624 569.912 112.433 568.9 108.388C562.659 83.2742 556.25 58.1609 550.178 33.0475C549.335 29.5081 547.311 29.0024 544.275 29.0024C541.07 29.0024 540.564 31.025 540.396 33.5532C540.058 38.1039 539.384 42.8232 538.878 47.3739C535.336 79.7348 531.794 112.264 527.915 144.625C526.565 156.592 526.228 156.255 538.203 158.446C542.251 159.12 543.263 157.772 543.769 154.064C544.781 143.951 546.299 134.007 547.479 124.062C548.997 114.118 548.829 114.118 558.949 114.118ZM905.382 114.118C906.9 114.118 908.418 113.95 909.767 114.118C915.839 114.961 916.514 112.433 914.827 107.208C913.14 101.983 912.128 96.5893 910.779 91.3644C905.888 71.9816 900.997 52.5989 896.443 33.2161C895.6 29.8452 893.744 29.0024 890.54 29.171C887.166 29.3395 887.166 31.3621 886.829 33.8903C882.781 70.9704 878.565 107.882 874.348 144.962C872.999 156.423 873.167 156.255 883.962 158.446C888.516 159.457 889.865 157.94 890.371 153.726C891.383 143.951 892.732 134.175 894.082 124.231C895.431 114.118 895.431 114.118 905.382 114.118ZM1251.65 110.073C1253.5 110.073 1255.53 109.904 1257.38 110.073C1261.77 110.579 1262.78 109.062 1261.77 104.68C1255.36 79.5662 1249.29 54.4529 1243.21 29.3395C1242.37 26.1371 1240.85 24.9573 1237.48 24.9573C1233.77 25.1259 1233.6 27.1484 1233.43 30.0137C1229.21 67.4309 1225 104.848 1220.95 142.265C1219.94 151.872 1220.11 151.535 1229.89 153.895C1235.12 155.075 1236.64 153.389 1237.14 148.501C1238.15 138.894 1239.5 129.287 1240.68 119.68C1241.86 110.073 1242.03 110.073 1251.65 110.073Z" fill="#0A332F"/>
</svg>
