<svg width="310" height="311" viewBox="0 0 310 311" fill="none" xmlns="http://www.w3.org/2000/svg">
<path d="M58.2079 172.849C67.1192 167.35 76.4097 162.61 84.3731 155.784C89.1131 155.974 92.7156 152.561 96.6972 150.855C110.349 144.977 124.758 141.375 139.358 138.53C200.789 132.274 250.654 156.922 294.832 197.307C259.376 193.326 226.385 201.668 194.722 216.457C193.774 216.836 192.826 217.026 192.067 217.405C158.697 235.607 133.101 262.72 108.642 291.35C103.523 297.417 97.266 302.726 94.0428 310.31C63.1376 310.31 32.2324 310.31 1.32718 310.31C1.32718 283.766 1.13757 257.222 1.13757 230.677C3.60241 227.264 6.06724 223.662 8.53207 220.249C22.373 201.668 40.1957 187.258 58.2079 172.849Z" fill="#45BB9B"/>
<path d="M58.208 172.849C40.1957 187.258 22.3731 201.668 8.53211 220.249C5.87768 223.662 3.60245 227.075 1.13761 230.677C0.568807 229.16 3.39148e-08 227.833 4.97417e-08 226.506C7.46126e-07 168.108 1.44025e-06 109.9 0.189605 51.5029C1.13762 43.1604 6.44649 38.7996 13.2722 34.6283C31.8532 22.6834 51.9511 14.5304 73.1865 7.89436C88.5443 3.1543 104.281 2.01669 120.398 0.499875C114.709 6.18795 109.211 11.876 104.092 17.7537C89.682 33.4907 80.3914 52.2613 72.0489 71.4112C59.156 100.8 58.9664 132.084 60.104 163.368C59.9144 166.971 58.9664 169.815 58.208 172.849Z" fill="#185446"/>
<path d="M93.8532 310.31C97.0765 302.726 103.333 297.417 108.453 291.35C132.911 262.91 158.508 235.797 191.878 217.405C192.636 217.026 193.584 216.836 194.532 216.457C197.755 220.249 202.685 219.87 206.856 221.197C244.777 232.194 274.355 254.378 296.349 286.989C301.468 294.384 306.966 301.589 310 310.121C304.691 310.31 299.193 310.5 293.884 310.5C228.85 310.5 164.006 310.5 98.9725 310.5C97.2661 310.5 95.5596 310.31 93.8532 310.31Z" fill="#2C7E65"/>
<path d="M139.168 138.72C124.569 141.564 110.349 145.167 96.5076 151.044C92.526 152.751 88.9235 155.974 84.1835 155.974C82.8562 136.066 83.9939 116.347 83.6146 96.4389C83.425 89.9925 83.8043 83.7356 83.6146 77.2891C83.425 72.9282 85.3211 71.4114 89.4923 71.601C95.9388 71.9802 103.902 69.5154 108.073 72.549C112.434 75.7723 109.021 84.3044 109.211 90.3717C109.59 100.8 109.211 111.228 109.401 121.656C109.401 123.742 108.263 126.586 110.538 127.534C113.003 128.482 113.951 125.638 115.278 124.121C125.138 112.934 135.187 101.937 144.667 90.5613C147.511 87.1484 149.596 86.7692 152.63 90.1821C154.336 92.0781 156.232 93.9741 158.128 95.6805C168.367 104.592 168.367 104.402 159.266 114.641C152.63 122.414 144.667 129.43 139.168 138.72Z" fill="#2C7E65"/>
</svg>
