<svg width="415" height="53" viewBox="0 0 415 53" fill="none" xmlns="http://www.w3.org/2000/svg">
<path d="M87.208 18.552H79.144V13.8H101.104V18.552H93.04V39H87.208V18.552ZM120.849 29.388C120.849 29.46 120.813 29.964 120.741 30.9H106.089C106.353 32.1 106.977 33.048 107.961 33.744C108.945 34.44 110.169 34.788 111.633 34.788C112.641 34.788 113.529 34.644 114.297 34.356C115.089 34.044 115.821 33.564 116.493 32.916L119.481 36.156C117.657 38.244 114.993 39.288 111.489 39.288C109.305 39.288 107.373 38.868 105.693 38.028C104.013 37.164 102.717 35.976 101.805 34.464C100.893 32.952 100.437 31.236 100.437 29.316C100.437 27.42 100.881 25.716 101.769 24.204C102.681 22.668 103.917 21.48 105.477 20.64C107.061 19.776 108.825 19.344 110.769 19.344C112.665 19.344 114.381 19.752 115.917 20.568C117.453 21.384 118.653 22.56 119.517 24.096C120.405 25.608 120.849 27.372 120.849 29.388ZM110.805 23.592C109.533 23.592 108.465 23.952 107.601 24.672C106.737 25.392 106.209 26.376 106.017 27.624H115.557C115.365 26.4 114.837 25.428 113.973 24.708C113.109 23.964 112.053 23.592 110.805 23.592ZM136.36 19.344C138.76 19.344 140.692 20.064 142.156 21.504C143.644 22.944 144.388 25.08 144.388 27.912V39H138.772V28.776C138.772 27.24 138.436 26.1 137.764 25.356C137.092 24.588 136.12 24.204 134.848 24.204C133.432 24.204 132.304 24.648 131.464 25.536C130.624 26.4 130.204 27.696 130.204 29.424V39H124.588V19.632H129.952V21.9C130.696 21.084 131.62 20.46 132.724 20.028C133.828 19.572 135.04 19.344 136.36 19.344ZM161.971 38.064C161.419 38.472 160.735 38.784 159.919 39C159.127 39.192 158.287 39.288 157.399 39.288C155.095 39.288 153.307 38.7 152.035 37.524C150.787 36.348 150.163 34.62 150.163 32.34V24.384H147.175V20.064H150.163V15.348H155.779V20.064H160.603V24.384H155.779V32.268C155.779 33.084 155.983 33.72 156.391 34.176C156.823 34.608 157.423 34.824 158.191 34.824C159.079 34.824 159.835 34.584 160.459 34.104L161.971 38.064ZM172.935 19.344C175.935 19.344 178.239 20.064 179.847 21.504C181.455 22.92 182.259 25.068 182.259 27.948V39H177.003V36.588C175.947 38.388 173.979 39.288 171.099 39.288C169.611 39.288 168.315 39.036 167.211 38.532C166.131 38.028 165.303 37.332 164.727 36.444C164.151 35.556 163.863 34.548 163.863 33.42C163.863 31.62 164.535 30.204 165.879 29.172C167.247 28.14 169.347 27.624 172.179 27.624H176.643C176.643 26.4 176.271 25.464 175.527 24.816C174.783 24.144 173.667 23.808 172.179 23.808C171.147 23.808 170.127 23.976 169.119 24.312C168.135 24.624 167.295 25.056 166.599 25.608L164.583 21.684C165.639 20.94 166.899 20.364 168.363 19.956C169.851 19.548 171.375 19.344 172.935 19.344ZM172.503 35.508C173.463 35.508 174.315 35.292 175.059 34.86C175.803 34.404 176.331 33.744 176.643 32.88V30.9H172.791C170.487 30.9 169.335 31.656 169.335 33.168C169.335 33.888 169.611 34.464 170.163 34.896C170.739 35.304 171.519 35.508 172.503 35.508ZM199.114 19.344C201.514 19.344 203.446 20.064 204.91 21.504C206.398 22.944 207.142 25.08 207.142 27.912V39H201.526V28.776C201.526 27.24 201.19 26.1 200.518 25.356C199.846 24.588 198.874 24.204 197.602 24.204C196.186 24.204 195.058 24.648 194.218 25.536C193.378 26.4 192.958 27.696 192.958 29.424V39H187.342V19.632H192.706V21.9C193.45 21.084 194.374 20.46 195.478 20.028C196.582 19.572 197.794 19.344 199.114 19.344ZM232.424 19.632V35.76C232.424 39.312 231.5 41.952 229.652 43.68C227.804 45.408 225.104 46.272 221.552 46.272C219.68 46.272 217.904 46.044 216.224 45.588C214.544 45.132 213.152 44.472 212.048 43.608L214.28 39.576C215.096 40.248 216.128 40.776 217.376 41.16C218.624 41.568 219.872 41.772 221.12 41.772C223.064 41.772 224.492 41.328 225.404 40.44C226.34 39.576 226.808 38.256 226.808 36.48V35.652C225.344 37.26 223.304 38.064 220.688 38.064C218.912 38.064 217.28 37.68 215.792 36.912C214.328 36.12 213.164 35.016 212.3 33.6C211.436 32.184 211.004 30.552 211.004 28.704C211.004 26.856 211.436 25.224 212.3 23.808C213.164 22.392 214.328 21.3 215.792 20.532C217.28 19.74 218.912 19.344 220.688 19.344C223.496 19.344 225.632 20.268 227.096 22.116V19.632H232.424ZM221.804 33.456C223.292 33.456 224.504 33.024 225.44 32.16C226.4 31.272 226.88 30.12 226.88 28.704C226.88 27.288 226.4 26.148 225.44 25.284C224.504 24.396 223.292 23.952 221.804 23.952C220.316 23.952 219.092 24.396 218.132 25.284C217.172 26.148 216.692 27.288 216.692 28.704C216.692 30.12 217.172 31.272 218.132 32.16C219.092 33.024 220.316 33.456 221.804 33.456ZM257.422 29.1L254.038 32.628V39H248.242V13.8H254.038V25.572L265.198 13.8H271.678L261.238 25.032L272.29 39H265.486L257.422 29.1ZM292.658 29.388C292.658 29.46 292.622 29.964 292.55 30.9H277.898C278.162 32.1 278.786 33.048 279.77 33.744C280.754 34.44 281.978 34.788 283.442 34.788C284.45 34.788 285.338 34.644 286.106 34.356C286.898 34.044 287.63 33.564 288.302 32.916L291.29 36.156C289.466 38.244 286.802 39.288 283.298 39.288C281.114 39.288 279.182 38.868 277.502 38.028C275.822 37.164 274.526 35.976 273.614 34.464C272.702 32.952 272.246 31.236 272.246 29.316C272.246 27.42 272.69 25.716 273.578 24.204C274.49 22.668 275.726 21.48 277.286 20.64C278.87 19.776 280.634 19.344 282.578 19.344C284.474 19.344 286.19 19.752 287.726 20.568C289.262 21.384 290.462 22.56 291.326 24.096C292.214 25.608 292.658 27.372 292.658 29.388ZM282.614 23.592C281.342 23.592 280.274 23.952 279.41 24.672C278.546 25.392 278.018 26.376 277.826 27.624H287.366C287.174 26.4 286.646 25.428 285.782 24.708C284.918 23.964 283.862 23.592 282.614 23.592ZM316.377 19.632V35.76C316.377 39.312 315.453 41.952 313.605 43.68C311.757 45.408 309.057 46.272 305.505 46.272C303.633 46.272 301.857 46.044 300.177 45.588C298.497 45.132 297.105 44.472 296.001 43.608L298.233 39.576C299.049 40.248 300.081 40.776 301.329 41.16C302.577 41.568 303.825 41.772 305.073 41.772C307.017 41.772 308.445 41.328 309.357 40.44C310.293 39.576 310.761 38.256 310.761 36.48V35.652C309.297 37.26 307.257 38.064 304.641 38.064C302.865 38.064 301.233 37.68 299.745 36.912C298.281 36.12 297.117 35.016 296.253 33.6C295.389 32.184 294.957 30.552 294.957 28.704C294.957 26.856 295.389 25.224 296.253 23.808C297.117 22.392 298.281 21.3 299.745 20.532C301.233 19.74 302.865 19.344 304.641 19.344C307.449 19.344 309.585 20.268 311.049 22.116V19.632H316.377ZM305.757 33.456C307.245 33.456 308.457 33.024 309.393 32.16C310.353 31.272 310.833 30.12 310.833 28.704C310.833 27.288 310.353 26.148 309.393 25.284C308.457 24.396 307.245 23.952 305.757 23.952C304.269 23.952 303.045 24.396 302.085 25.284C301.125 26.148 300.645 27.288 300.645 28.704C300.645 30.12 301.125 31.272 302.085 32.16C303.045 33.024 304.269 33.456 305.757 33.456ZM321.604 19.632H327.22V39H321.604V19.632ZM324.412 16.932C323.38 16.932 322.54 16.632 321.892 16.032C321.244 15.432 320.92 14.688 320.92 13.8C320.92 12.912 321.244 12.168 321.892 11.568C322.54 10.968 323.38 10.668 324.412 10.668C325.444 10.668 326.284 10.956 326.932 11.532C327.58 12.108 327.904 12.828 327.904 13.692C327.904 14.628 327.58 15.408 326.932 16.032C326.284 16.632 325.444 16.932 324.412 16.932ZM340.244 19.344C343.244 19.344 345.548 20.064 347.156 21.504C348.764 22.92 349.568 25.068 349.568 27.948V39H344.312V36.588C343.256 38.388 341.288 39.288 338.408 39.288C336.92 39.288 335.624 39.036 334.52 38.532C333.44 38.028 332.612 37.332 332.036 36.444C331.46 35.556 331.172 34.548 331.172 33.42C331.172 31.62 331.844 30.204 333.188 29.172C334.556 28.14 336.656 27.624 339.488 27.624H343.952C343.952 26.4 343.58 25.464 342.836 24.816C342.092 24.144 340.976 23.808 339.488 23.808C338.456 23.808 337.436 23.976 336.428 24.312C335.444 24.624 334.604 25.056 333.908 25.608L331.892 21.684C332.948 20.94 334.208 20.364 335.672 19.956C337.16 19.548 338.684 19.344 340.244 19.344ZM339.812 35.508C340.772 35.508 341.624 35.292 342.368 34.86C343.112 34.404 343.64 33.744 343.952 32.88V30.9H340.1C337.796 30.9 336.644 31.656 336.644 33.168C336.644 33.888 336.92 34.464 337.472 34.896C338.048 35.304 338.828 35.508 339.812 35.508ZM367.143 38.064C366.591 38.472 365.907 38.784 365.091 39C364.299 39.192 363.459 39.288 362.571 39.288C360.267 39.288 358.479 38.7 357.207 37.524C355.959 36.348 355.335 34.62 355.335 32.34V24.384H352.347V20.064H355.335V15.348H360.951V20.064H365.775V24.384H360.951V32.268C360.951 33.084 361.155 33.72 361.563 34.176C361.995 34.608 362.595 34.824 363.363 34.824C364.251 34.824 365.007 34.584 365.631 34.104L367.143 38.064ZM378.107 19.344C381.107 19.344 383.411 20.064 385.019 21.504C386.627 22.92 387.431 25.068 387.431 27.948V39H382.175V36.588C381.119 38.388 379.151 39.288 376.271 39.288C374.783 39.288 373.487 39.036 372.383 38.532C371.303 38.028 370.475 37.332 369.899 36.444C369.323 35.556 369.035 34.548 369.035 33.42C369.035 31.62 369.707 30.204 371.051 29.172C372.419 28.14 374.519 27.624 377.351 27.624H381.815C381.815 26.4 381.443 25.464 380.699 24.816C379.955 24.144 378.839 23.808 377.351 23.808C376.319 23.808 375.299 23.976 374.291 24.312C373.307 24.624 372.467 25.056 371.771 25.608L369.755 21.684C370.811 20.94 372.071 20.364 373.535 19.956C375.023 19.548 376.547 19.344 378.107 19.344ZM377.675 35.508C378.635 35.508 379.487 35.292 380.231 34.86C380.975 34.404 381.503 33.744 381.815 32.88V30.9H377.963C375.659 30.9 374.507 31.656 374.507 33.168C374.507 33.888 374.783 34.464 375.335 34.896C375.911 35.304 376.691 35.508 377.675 35.508ZM404.286 19.344C406.686 19.344 408.618 20.064 410.082 21.504C411.57 22.944 412.314 25.08 412.314 27.912V39H406.698V28.776C406.698 27.24 406.362 26.1 405.69 25.356C405.018 24.588 404.046 24.204 402.774 24.204C401.358 24.204 400.23 24.648 399.39 25.536C398.55 26.4 398.13 27.696 398.13 29.424V39H392.514V19.632H397.878V21.9C398.622 21.084 399.546 20.46 400.65 20.028C401.754 19.572 402.966 19.344 404.286 19.344Z" fill="white"/>
<path d="M56.5 19.5L6 0L1.5 14L32 26.5L0 39L6 52.5L56.5 34V19.5Z" fill="#278063"/>
</svg>
